<svg id="Capa_1" data-name="Capa 1" xmlns="http://www.w3.org/2000/svg" xmlns:xlink="http://www.w3.org/1999/xlink" viewBox="0 0 141.73 141.73"><defs><style>.cls-1{fill:none;}.cls-2{clip-path:url(#clip-path);}.cls-3{fill:#ecc19c;}.cls-4{fill:#f1d0b5;}.cls-5{fill:#cf9e76;}.cls-6{fill:#f5e0cd;}.cls-7{fill:#8fb834;}.cls-8{fill:#a8cc71;}.cls-9{fill:#97c234;}.cls-10{fill:#78ac2b;}.cls-11{fill:#6a4c31;}.cls-12{fill:#fff;}.cls-13{fill:#795b31;}.cls-14{fill:#5b4231;}</style><clipPath id="clip-path"><circle class="cls-1" cx="70.87" cy="70.87" r="68.03"/></clipPath></defs><title>logo paleta de colores</title><g class="cls-2"><path class="cls-3" d="M-26.75,119.59s0-.19.1-.54c1.28-6.47,15.56-68.93,84.72-33,0,0,17.19,5.43,23.73,5.31s8.74-13,11.47-19.81,8.56-8.13,10-7.08-.35,6.21-.35,6.21,5.37-13.6,13.77-11.22c2.84.8,1.39,6,1.39,6s5-12.08,13.08-9.79c3.68,1,1.42,9.16,1.42,9.16s4.38-2.25,6.35,1.27c2.43,4.35-11.36,31.1-17.43,40.28-7.34,11.1-28.46,27.71-45,27.63C57,133.9,5.29,98.58-26.75,119.59Z"/><path class="cls-4" d="M82.9,94.86s-3.78,4.26-1.46,6.62c3.68,3.73,13.35,3.47,13.35,3.47s5.34-5,1-9.19C93.57,93.52,82.9,94.86,82.9,94.86Z"/><path class="cls-5" d="M39,107a11.34,11.34,0,0,1,1.31-.35c.85-.22,2.12-.49,3.75-.75s3.62-.46,5.92-.64a63.42,63.42,0,0,1,7.72,0,79.66,79.66,0,0,1,9.12.89,47.21,47.21,0,0,1,4.92.94l5.07,1.15a37.5,37.5,0,0,0,5.15.95,25.19,25.19,0,0,0,5.28,0,14,14,0,0,0,9.21-4.46,9.24,9.24,0,0,0,2.19-4.49A8.13,8.13,0,0,0,98.72,99a3.51,3.51,0,0,0-.09-.65,3.12,3.12,0,0,1-.15-.39,4.77,4.77,0,0,0-1.54-1.64c-2.85-1.76-6.56-2.28-10-2.5-.85,0-1.71-.06-2.56,0s-1.73,0-2.6-.1a42,42,0,0,1-5-.86A74.84,74.84,0,0,1,68,90.15c-5.33-1.92-9.58-4-12.57-5.33L50.8,82.56l4.81,1.89c3,1.23,7.71,2.48,12.83,4.48a73.88,73.88,0,0,0,8.66,2.43,40.09,40.09,0,0,0,4.78.65c.81,0,1.73,0,2.52,0s1.78,0,2.68,0c3.57.22,7.37.58,10.91,2.68a6.6,6.6,0,0,1,2.22,2.37q.18.47.33.93a5.65,5.65,0,0,1,.11.73,8.57,8.57,0,0,1-.06,1.64A11,11,0,0,1,98,106a16,16,0,0,1-10.52,5,26.37,26.37,0,0,1-5.69,0,37.55,37.55,0,0,1-5.37-1.05l-5-1.24a47.93,47.93,0,0,0-4.8-1.1,79.88,79.88,0,0,0-8.94-1.21c-2.78-.3-5.35-.28-7.63-.34s-4.27.12-5.89.28-2.92.3-3.78.47A12.77,12.77,0,0,0,39,107Z"/><path class="cls-5" d="M103.09,70.05s-1.87,6.19-4,12.32c-1,3.07-2.12,6.11-3.1,8.4l-.66,1.57a13.18,13.18,0,0,1-.7,1.27L94,94.73l-2.23-2.06.53-.74c.17-.26.4-.48.64-.89l.79-1.4c1.18-2,2.61-5,4-7.85C100.51,76,103.09,70.05,103.09,70.05Z"/><path class="cls-5" d="M118.05,65.43a147.45,147.45,0,0,1-7.58,16.75c-1.08,2-2.26,4-3.42,5.88s-2.37,3.5-3.45,4.9c-.54.7-1.1,1.3-1.57,1.85a16.6,16.6,0,0,1-1.29,1.38l-1.19,1.16L97.62,95l1.14-1a13.14,13.14,0,0,0,1.29-1.15c.47-.49,1-1,1.6-1.61,1.14-1.23,2.41-2.73,3.7-4.41s2.58-3.56,3.82-5.47A147.48,147.48,0,0,0,118.05,65.43Z"/><path class="cls-5" d="M132.55,64.8a5.35,5.35,0,0,0-2.17,1,20.4,20.4,0,0,0-4.37,4.6,55.33,55.33,0,0,0-4.6,7.74c-1.43,3-2.93,6.21-4.61,9.35-3.35,6.29-7.3,12.37-11.52,16.1a16.28,16.28,0,0,1-6,3.56,12.38,12.38,0,0,1-2.06.39l-.76,0,0-3H97a7.55,7.55,0,0,0,1.48-.21,13.44,13.44,0,0,0,5.08-2.73c4-3.15,8.18-8.88,11.76-14.92,1.83-3,3.4-6.15,5.07-9.07a55.53,55.53,0,0,1,5.15-7.55,20.37,20.37,0,0,1,4.72-4.38A5.31,5.31,0,0,1,132.55,64.8Z"/><path class="cls-6" d="M82.9,94.86s3.43,3.14-1.46,6.62C81.44,101.48,79.13,98.68,82.9,94.86Z"/><path class="cls-7" d="M82.67,59.33a63.79,63.79,0,0,0-1.12-10.44c-.29-1.73-.57-3.48-.8-5.3l2-.24c.22,1.79.5,3.51.78,5.22a66.05,66.05,0,0,1,1.15,10.75Z"/><path class="cls-7" d="M123.77,27.76C112.17,31.39,82.18,30.54,82,65.05h0V90.3h2.62V65.19C124.16,63.75,121.21,30.32,123.77,27.76Z"/><path class="cls-7" d="M52.41,36.91c5.77,1,22.59,1,27,28.28C60.61,66.48,52.41,36.91,52.41,36.91Z"/><path class="cls-7" d="M66.18,7s-8,29,14.65,36.94c.19.07.37.15.56.21l0-.13,0,.07c.33.37.63.11.81-.21v.08C93.44,18,72.69,10.44,66.18,7Z"/><path class="cls-7" d="M84,73.25l-2-.06a9.58,9.58,0,0,0-1.46-4.59,20.17,20.17,0,0,0-1.43-2.21,9.91,9.91,0,0,0-.9-1c-.3-.32-.59-.63-.87-1l1.55-1.24c.24.3.5.57.76.84a12.66,12.66,0,0,1,1.06,1.23,21.42,21.42,0,0,1,1.56,2.41A11.41,11.41,0,0,1,84,73.25Z"/><path class="cls-8" d="M83.7,60.83s0-.74,0-2A14,14,0,0,1,84,56.46a15.74,15.74,0,0,1,.66-3A24.54,24.54,0,0,1,85.9,50a27.65,27.65,0,0,1,2-3.58,33.78,33.78,0,0,1,2.58-3.53c.48-.57,1-1.1,1.52-1.66.28-.28.46-.54.81-.84l.82-.74a27.86,27.86,0,0,1,3.66-2.73l1.92-1.11,2-.91c1.39-.59,2.61-.87,3.84-1.29s2.4-.75,3.47-1c2.15-.57,4-.95,5.21-1.26s2-.43,2-.43-.67.31-1.87.8-2.92,1.2-5,2c-1,.38-2.08.84-3.29,1.31s-2.5,1-3.63,1.49l-1.82.94-1.78,1.11a24.79,24.79,0,0,0-3.35,2.58l-.84.73c-.21.17-.48.5-.73.74-.48.52-1,1-1.46,1.55a40,40,0,0,0-2.59,3.25c-.82,1.07-1.43,2.22-2.1,3.27-.52,1.12-1.15,2.12-1.5,3.15a21.83,21.83,0,0,0-1,2.78,13.41,13.41,0,0,0-.59,2.24C83.86,60.11,83.7,60.83,83.7,60.83Z"/><path class="cls-8" d="M67.92,9.34s.11.08.3.25a5.84,5.84,0,0,0,.89.6c.81.45,2.06,1.1,3.42,2,.69.43,1.45.87,2.22,1.41s1.56,1.17,2.37,1.83l1.24,1a16.38,16.38,0,0,1,1.1,1.23,16,16,0,0,1,1.94,2.77,27.94,27.94,0,0,1,1.41,3.06c.37,1,.61,2.1.89,3.1s.34,2,.45,3,.09,1.85.12,2.67-.1,1.59-.16,2.25a14.24,14.24,0,0,1-.26,1.71c-.18.94-.32,1.46-.32,1.46s0-.55-.07-1.49a13.5,13.5,0,0,0-.09-1.69c-.08-.65-.16-1.38-.24-2.17s-.3-1.63-.44-2.52S82.24,27.91,82,27s-.66-1.88-1-2.85a27.74,27.74,0,0,0-1.33-2.74A14,14,0,0,0,78,18.83l-.94-1.16-1.11-1c-.74-.65-1.42-1.32-2.09-1.94l-2-1.67-3-2.56A5.72,5.72,0,0,1,67.92,9.34Z"/><path class="cls-8" d="M54.8,38.52s.53.09,1.44.28,2.22.45,3.77.84l.59.15a6.57,6.57,0,0,1,.66.24l1.22.51,1.29.54c.43.22.86.52,1.3.79a16.27,16.27,0,0,1,2.62,1.84,21,21,0,0,1,2.39,2.23,27.22,27.22,0,0,1,2.07,2.56c.59.86,1.13,1.72,1.65,2.57s.9,1.83,1.3,2.68A15.61,15.61,0,0,1,76,56.22a13,13,0,0,1,.56,2.13c.09.65.17,1.22.24,1.68.12.93.17,1.46.17,1.46s-.22-.5-.55-1.37l-.57-1.55c-.18-.61-.6-1.22-.91-1.94a22.37,22.37,0,0,0-1.14-2.22c-.46-.75-.94-1.53-1.41-2.36l-1.79-2.47a29.08,29.08,0,0,0-1.94-2.29,19,19,0,0,0-2.18-2.12,17.91,17.91,0,0,0-2.27-1.8c-.38-.28-.74-.56-1.13-.82l-1.22-.68-1.15-.65a4.18,4.18,0,0,0-.49-.28l-.56-.23c-1.47-.6-2.67-1.18-3.52-1.55S54.8,38.52,54.8,38.52Z"/><path class="cls-9" d="M67.37,12.27S62.06,32.84,79.82,40.93C79.32,26.14,67.37,12.27,67.37,12.27Z"/><path class="cls-9" d="M99.49,50.58a9.23,9.23,0,0,0-3.19-.33c-1.21.1-2.67.8-3.83.77-.92,0-1.27-.43-.42-1.33,3.87-4.09,9.49-3.06,14.44-2.56,1.63.16,4.08.68,3.68,2.84-.22,1.19-1.6,1.76-2.72,2C104.59,52.55,102.09,51.24,99.49,50.58Z"/><path class="cls-9" d="M113.48,43a9.09,9.09,0,0,1-2.2.12,23.74,23.74,0,0,1-3.79-.58,20.35,20.35,0,0,0-4.66-.57c-.42,0-2.37.52-2.12-.43.17-.62,2.07-1.31,2.62-1.53a12.39,12.39,0,0,1,3.46-.71c1.89-.17,3.82-.2,5.74-.4a5.6,5.6,0,0,1,2.79.17c1.19.6.61,2.5-.25,3.22A3.6,3.6,0,0,1,113.48,43Z"/><path class="cls-9" d="M99.58,56.39c1,.32,1.69.72,1.22,1.12-.65.56-1.58.28-2.34.39s-1.24.24-1.91.29a21.25,21.25,0,0,0-5.48.93c-.88.29-4.52,3.09-4.74,1.1-.2-1.77,3.25-4.17,4.62-4.73,1.75-.72,3.55-.34,5.32.09C96.56,55.66,98.31,56,99.58,56.39Z"/><path class="cls-9" d="M56.67,41.78c3.26.91,12.36,1.65,18.54,19.73C65.25,61.54,56.67,41.78,56.67,41.78Z"/><path class="cls-10" d="M84.11,62.24s.2-.75.59-2,1-3.14,1.83-5.28c.4-1.09,1-2.23,1.53-3.43a34.9,34.9,0,0,1,2.14-3.65A31.71,31.71,0,0,1,93,44.24l1.63-1.67c.64-.65,1.19-1,1.79-1.55a32.08,32.08,0,0,1,3.89-2.66c1.37-.73,2.72-1.43,4.06-2,2.68-1.16,5.23-2,7.39-2.76l3-1a23.41,23.41,0,0,0,2.25-.87c1.24-.51,2-.78,2-.78s-.63.43-1.79,1.13c-.57.36-1.28.77-2.12,1.2s-1.76,1-2.81,1.42c-2.08,1-4.56,2-7.1,3.29-1.29.58-2.53,1.35-3.82,2a29.23,29.23,0,0,0-3.6,2.54c-.56.48-1.27,1-1.71,1.43l-1.56,1.56a39.84,39.84,0,0,0-2.75,3.31c-.86,1.11-1.56,2.27-2.27,3.36s-1.29,2.17-1.79,3.2c-1.07,2-1.93,3.72-2.5,4.94S84.11,62.24,84.11,62.24Z"/><path class="cls-10" d="M87.17,55.71s.13-.31.37-.84a3.66,3.66,0,0,1,.69-.87,5.88,5.88,0,0,1,1.18-.89A8.25,8.25,0,0,1,91,52.46a9,9,0,0,1,1.86-.38,12,12,0,0,1,2-.08l.51,0,.55.07,1,.14a14.58,14.58,0,0,1,2,.44c.68.17,1.26.38,1.85.55s1.16.38,1.67.5,1,.31,1.47.37.9.18,1.29.26l1,.1.92.11s-.31.11-.88.28a9.85,9.85,0,0,1-1,.27c-.41,0-.88.09-1.39.12a9.56,9.56,0,0,1-1.67-.06,12.18,12.18,0,0,1-1.8-.25c-.61-.13-1.26-.23-1.83-.38a14.42,14.42,0,0,0-1.87-.36l-1-.16-.43-.08-.46,0c-.6,0-1.2-.09-1.78-.09a14.66,14.66,0,0,0-1.66.08,14.06,14.06,0,0,0-1.45.25,9.65,9.65,0,0,0-1.15.44c-.29.2-.64.27-.84.51C87.43,55.5,87.17,55.71,87.17,55.71Z"/><path class="cls-10" d="M93.12,46.55l.76-.65a7.57,7.57,0,0,1,.93-.67c.38-.24.82-.5,1.31-.77s1.07-.47,1.67-.7a17.62,17.62,0,0,1,2-.51c.68,0,1.34-.16,2.08-.15s1.56.09,2.29.2l2.12.4,1,.22.45.1.5.09a18.77,18.77,0,0,0,1.86.28,15.46,15.46,0,0,0,1.62.1c.5,0,1-.05,1.41-.05l1.1-.17,1-.12s-.3.19-.87.5c-.28.14-.62.35-1,.52s-.91.3-1.46.45a9.09,9.09,0,0,1-1.83.25,10.92,10.92,0,0,1-2,0l-.5,0-.56-.07c-.35,0-.69-.09-1-.15l-2.08-.33c-.68-.12-1.29-.15-1.94-.25l-2,0-1.75.2c-.57.13-1.12.23-1.63.33s-1,.27-1.37.38-.78.26-1.08.35Z"/><path class="cls-10" d="M105,37.38a20,20,0,0,1,2.13-.44l1-.13c.37,0,.73-.14,1.12-.19.77-.15,1.59-.25,2.4-.35s1.62-.36,2.39-.49a11,11,0,0,0,1.11-.2c.34-.11.67-.19,1-.27,1.23-.29,2.13-.41,2.13-.41a19.48,19.48,0,0,1-1.82,1.21c-.29.17-.6.35-.94.52a6.08,6.08,0,0,1-1.11.42c-.78.25-1.63.47-2.49.69s-1.76.16-2.59.18a9,9,0,0,1-2.21-.13C105.87,37.6,105,37.38,105,37.38Z"/><path class="cls-10" d="M69.9,13.8s.37.37,1,1.06,1.46,1.66,2.4,2.91a49,49,0,0,1,3.06,4.39,24.65,24.65,0,0,1,1.53,2.62q.7,1.39,1.41,2.82c.37,1,.74,2,1.1,3a21.93,21.93,0,0,1,.8,2.95,16.36,16.36,0,0,1,.51,2.81c.1.9.17,1.76.23,2.54a11.73,11.73,0,0,1,0,2.15q-.06,1-.09,1.65c-.06.91-.12,1.43-.12,1.43s-.12-.52-.27-1.42l-.26-1.61C81,40.45,81,39.74,80.78,39s-.38-1.55-.56-2.41A22.31,22.31,0,0,0,79.48,34c-.31-.9-.51-1.86-.92-2.77s-.74-1.86-1.11-2.8c-.86-1.83-1.69-3.68-2.63-5.36-.46-.84-.84-1.69-1.3-2.45s-.83-1.5-1.19-2.18l-1.78-3.32C70.12,14.27,69.9,13.8,69.9,13.8Z"/><path class="cls-10" d="M70.65,32.26a2.64,2.64,0,0,0,.4.41,5.28,5.28,0,0,0,1.25.68l.91.38,1,.41c.73.27,1.48.62,2.24,1l1.1.5a10.29,10.29,0,0,1,1.09.58,7.14,7.14,0,0,1,1.77,1.41,2.71,2.71,0,0,1,.52.76,2.45,2.45,0,0,1,.28.64,4.52,4.52,0,0,1,.14.58s-.16-.17-.39-.44a4.37,4.37,0,0,0-1.11-.89,12.08,12.08,0,0,0-1.8-.89l-2.25-.91c-.74-.37-1.49-.74-2.16-1.13a8.07,8.07,0,0,1-1-.61,6.22,6.22,0,0,1-.83-.63,4.09,4.09,0,0,1-1-1.24A1.63,1.63,0,0,1,70.65,32.26Z"/><path class="cls-10" d="M67.37,15.16s.06.16.15.45a2.07,2.07,0,0,0,.25.45c.09.16.26.32.4.51a8.37,8.37,0,0,0,1.21,1.12c.24.2.5.38.75.57s.51.38.8.56c.56.39,1.11.67,1.66,1A8.72,8.72,0,0,1,74,21a3.49,3.49,0,0,1,.74,1,3.33,3.33,0,0,1,.19.44l-.34-.33a5.38,5.38,0,0,0-1-.72,13.75,13.75,0,0,0-1.47-.8,14.94,14.94,0,0,1-1.77-1,8.13,8.13,0,0,1-2.68-2.76,2.51,2.51,0,0,1-.28-.69,2.37,2.37,0,0,1-.1-.56C67.35,15.33,67.37,15.16,67.37,15.16Z"/><path class="cls-10" d="M68,23.34l.45.44a6.87,6.87,0,0,0,1.28,1,38,38,0,0,0,4.5,2.13,12.43,12.43,0,0,1,4.31,2.8,2.88,2.88,0,0,1,.56.81,2.64,2.64,0,0,1,.31.68c.12.4.17.62.17.62s-.13-.19-.34-.53a4.74,4.74,0,0,0-1.09-1.18A20.37,20.37,0,0,0,73.8,27.8a16.61,16.61,0,0,1-4.42-2.58,5.15,5.15,0,0,1-1.09-1.32Z"/><path class="cls-10" d="M85,63.77s.59-.12,1.61-.28l1.85-.27a18.68,18.68,0,0,0,2.34-.5l2.66-.62,3-1.06c1.07-.31,2.05-.85,3.11-1.25l1.58-.66,1.56-.73a30.91,30.91,0,0,0,3-1.58c.91-.66,1.9-1.17,2.72-1.87s1.69-1.29,2.43-2,1.43-1.31,2.07-1.9,1.19-1.18,1.71-1.67.94-1,1.29-1.34c.7-.76,1.13-1.17,1.13-1.17s-.28.52-.83,1.4c-.27.45-.6,1-1,1.57a23.31,23.31,0,0,1-1.43,2,25.76,25.76,0,0,1-1.9,2.19l-1.1,1.15-1.26,1.1a30.81,30.81,0,0,1-2.78,2.13,32.3,32.3,0,0,1-3.19,1.76l-1.65.74-1.66.65A30.9,30.9,0,0,1,97,62.71l-3.08.81c-1.12.17-2,.24-3,.33a12.22,12.22,0,0,1-2.44.1l-1.86-.08C85.58,63.82,85,63.77,85,63.77Z"/><path class="cls-10" d="M62.31,53.4s1,.7,2.33,1.87c.66.58,1.4,1.35,2.21,2.08.39.37.81.74,1.22,1.15s.88.7,1.31,1.07l.66.54.16.13s.1.08,0,0l.1,0,.38.22c.51.27,1,.64,1.46.87.94.41,1.83.85,2.67,1.15l2,.82c.49.2.76.34.76.34a24.84,24.84,0,0,1-3-.34,16,16,0,0,1-3.06-.82c-.54-.22-1-.49-1.55-.76l-.38-.21-.1-.06a.42.42,0,0,1-.14-.1l-.18-.14-.73-.57a18.07,18.07,0,0,1-1.39-1.19c-.41-.43-.8-.87-1.18-1.29A28.86,28.86,0,0,1,64,55.85C63,54.42,62.31,53.4,62.31,53.4Z"/><path class="cls-11" d="M58.3,85.15c.24-.33.51-.65.76-1a6.36,6.36,0,0,1,.44-.53l.42-.43a16,16,0,0,1,2-1.61,14.88,14.88,0,0,1,2.16-1.13,10.58,10.58,0,0,1,2.16-.73c.36-.08.7-.17,1-.23l1-.07a5.37,5.37,0,0,1,1.72.08,3.68,3.68,0,0,1,1.28.33c.67.29,1,.47,1,.47l-1.11-.09a3.92,3.92,0,0,0-1.21,0,6.72,6.72,0,0,0-1.54.28,10.93,10.93,0,0,0-1.74.6,13.83,13.83,0,0,0-1.84.87c-.65.3-1.22.79-1.85,1.15a12.54,12.54,0,0,0-1.68,1.44l-.43.41s-.22.27-.33.39l-.5.6.79.26c.81.25,1.61.51,2.42.79a10.4,10.4,0,0,1,3.56-2.79c3.25-1.44,7.82-2.14,9,2.15a5.26,5.26,0,0,1,0,2.73,7.84,7.84,0,0,1,5.87-.69,8.93,8.93,0,0,1,1.69.63c-6.24-15.08-20-15-27-4.44l1.85.7A2.39,2.39,0,0,1,58.3,85.15Z"/><path class="cls-11" d="M100.64,99.27a10.12,10.12,0,0,1-1,4.38,9.34,9.34,0,0,1-.85,1.55,17.49,17.49,0,0,1-2.34,2.45,4.28,4.28,0,0,0,2-.07,20.5,20.5,0,0,0,2-.52,9,9,0,0,0,2.09-.84,17.46,17.46,0,0,0,3.08-2.4,6.46,6.46,0,0,0,1.92-2.75,5.25,5.25,0,0,0-.6-3.68,3,3,0,0,0-.54-.83c-.8-.82-2.07-.77-2.67-1.84s-.56-2.13-1-3.13a12.07,12.07,0,0,0-1.54-2.52,14.6,14.6,0,0,0-5-4c-4.77-2.27-9,.88-11.9,4.61a7,7,0,0,1,2.44,2.71l1.24.06a2.71,2.71,0,0,1,0-2.68c1.71-3.83,10.18-3.3,8.91.76a3.6,3.6,0,0,1-.32.74,4.8,4.8,0,0,1-2.64,2,16.88,16.88,0,0,1,2.33.8c.24-.18.48-.37.7-.56a9.34,9.34,0,0,0,.89-.89,5.16,5.16,0,0,0,.66-.9A4,4,0,0,0,99,90.8a2.09,2.09,0,0,0,.21-.75c.08-.46.13-.73.13-.73s.1.24.26.7a2,2,0,0,1,.16.88,3.24,3.24,0,0,1-.11,1.17c0,.21-.11.44-.17.67s-.21.42-.32.65c-.2.41-.92.85-1,1.31s.94,1.06,1.3,1.44A4.64,4.64,0,0,1,100.64,99.27Z"/><path class="cls-12" d="M60.89,85l.43-.41A12.54,12.54,0,0,1,63,83.18c.63-.36,1.2-.85,1.85-1.15a13.83,13.83,0,0,1,1.84-.87,10.93,10.93,0,0,1,1.74-.6A6.72,6.72,0,0,1,70,80.28a3.92,3.92,0,0,1,1.21,0l1.11.09s-.35-.18-1-.47A3.68,3.68,0,0,0,70,79.52a5.37,5.37,0,0,0-1.72-.08l-1,.07c-.33.06-.67.15-1,.23a10.58,10.58,0,0,0-2.16.73,14.88,14.88,0,0,0-2.16,1.13,16,16,0,0,0-2,1.61l-.42.43a6.36,6.36,0,0,0-.44.53c-.25.33-.52.65-.76,1a2.39,2.39,0,0,0-.13.21q.93.35,1.89.66l.5-.6C60.67,85.3,60.84,85.07,60.89,85Z"/><path class="cls-13" d="M75.79,89.16a5.26,5.26,0,0,0,0-2.73c-1.15-4.29-5.72-3.59-9-2.15a10.4,10.4,0,0,0-3.56,2.79c2.43.83,4.83,1.75,7.26,2.6,1.16.41,2.34.75,3.53,1A5.42,5.42,0,0,1,75.79,89.16Z"/><path class="cls-13" d="M96.61,91.23a3.6,3.6,0,0,0,.32-.74c1.27-4.06-7.2-4.59-8.91-.76a2.71,2.71,0,0,0,0,2.68,29.28,29.28,0,0,1,6,.81A4.8,4.8,0,0,0,96.61,91.23Z"/><path class="cls-14" d="M75.79,89.16a5.42,5.42,0,0,0-1.73,1.56,55.56,55.56,0,0,0,10.19,1.5l2.5.13a7,7,0,0,0-2.44-2.71,7.43,7.43,0,0,0-1-.54,8.93,8.93,0,0,0-1.69-.63A7.84,7.84,0,0,0,75.79,89.16Z"/><path class="cls-14" d="M98.32,95.11c.08-.09.6-1.26.8-1.72.11-.23.23-.44.32-.65s.12-.46.17-.67a3.24,3.24,0,0,0,.11-1.17,2,2,0,0,0-.16-.88c-.16-.46-.26-.7-.26-.7s0,.27-.13.73a2.09,2.09,0,0,1-.21.75,4,4,0,0,1-.41.87,5.16,5.16,0,0,1-.66.9,9.34,9.34,0,0,1-.89.89c-.22.19-.46.38-.7.56l.49.22A16,16,0,0,1,98.32,95.11Z"/></g></svg>