<svg id="Capa_1" data-name="Capa 1" xmlns="http://www.w3.org/2000/svg" xmlns:xlink="http://www.w3.org/1999/xlink" viewBox="0 0 283.46 283.46"><defs><style>.cls-1,.cls-3{fill:none;}.cls-2{fill:#fffaf0;}.cls-3{stroke:#a2d0a9;stroke-miterlimit:10;}.cls-4{clip-path:url(#clip-path);}.cls-5{fill:#ecc19c;}.cls-6{fill:#f1d0b5;}.cls-7{fill:#cf9e76;}.cls-8{fill:#f5e0cd;}.cls-9{fill:#8fb834;}.cls-10{fill:#a8cc71;}.cls-11{fill:#97c234;}.cls-12{fill:#78ac2b;}.cls-13{fill:#6a4c31;}.cls-14{fill:#fff;}.cls-15{fill:#795b31;}.cls-16{fill:#5b4231;}.cls-17{font-size:20.85px;fill:#199b41;font-family:Montserrat-SemiBold, Montserrat;font-weight:600;}.cls-18{letter-spacing:-0.01em;}.cls-19{letter-spacing:0em;}.cls-20{letter-spacing:-0.02em;}.cls-21{clip-path:url(#clip-path-2);}</style><clipPath id="clip-path"><circle class="cls-1" cx="142.19" cy="121.26" r="70.87"/></clipPath><clipPath id="clip-path-2"><circle class="cls-1" cx="366.58" cy="70.87" r="68.03"/></clipPath></defs><title>logo paleta de colores</title><circle class="cls-2" cx="142.19" cy="141.71" r="141.73" transform="translate(-43.16 218.81) rotate(-67.49)"/><circle class="cls-2" cx="142.19" cy="141.71" r="136.62" transform="translate(-58.56 142.05) rotate(-45)"/><path class="cls-3" d="M142.47,278.77v-.88h.44v.88Zm-.44,0h-.44v-.88H142Zm-.88,0h-.44v-.88h.44Zm2.21,0v-.88h.44v.88Zm-3.09,0h-.45l0-.88h.44Zm4,0v-.88h.43l0,.88Zm-4.86,0h-.44l0-.88h.44Zm5.74,0,0-.88h.44l0,.88Zm-6.62,0h-.44l0-.88h.44Zm7.5,0,0-.88h.43l0,.88Zm-8.38,0-.44,0,0-.88.44,0Zm9.26,0,0-.88h.44l0,.88Zm-10.14,0h-.45l0-.88h.44Zm11,0,0-.88.44,0,0,.88Zm-11.91,0-.44,0,0-.88.44,0Zm12.79,0,0-.88.44,0,0,.88Zm-13.67,0-.44,0,.05-.88.44,0Zm14.55,0-.05-.88.44,0,.05.88Zm-15.43,0-.44,0,0-.88.44,0Zm16.31,0-.05-.88.44,0,.05.88Zm-17.19,0-.44,0,.06-.88.43,0Zm18.08,0-.06-.88.44,0,.06.87Zm-19-.05-.44,0,.06-.88.44,0Zm19.84,0-.07-.88.44,0,.07.88Zm-20.72-.05-.45,0,.08-.88.43,0Zm21.6,0-.07-.88.44,0,.07.88Zm-22.48-.06-.44,0,.07-.88.44,0Zm23.36,0-.08-.87.44,0,.08.88Zm-24.24-.06-.44,0,.08-.88.44,0Zm25.12,0-.08-.88.43,0,.09.88Zm-26-.07-.44-.05.08-.87.44,0Zm26.88,0-.09-.88.44-.05.08.88ZM127.93,278l-.44-.05.09-.87.44,0Zm28.63,0-.09-.88.44,0,.09.88Zm-29.51-.09-.44-.05.1-.87.44.05Zm30.39,0-.09-.87.43-.05.1.87Zm-31.27-.08-.44-.06.11-.87.43.05Zm32.15,0-.1-.87.43-.06.11.88Zm-33-.09-.44-.05.11-.88.43.06Zm33.9,0-.11-.87.43-.05.11.87Zm-34.78-.09-.44-.06.12-.87.43.06Zm35.65,0-.11-.87.43-.06.12.88Zm-36.53-.1-.43-.06.12-.87.43.06Zm37.41,0-.12-.88.43-.05.12.87Zm-38.28-.11-.44-.06.13-.87.43.06Zm39.15,0-.12-.87.43-.06.13.87Zm-40-.11-.44-.06.13-.87.43.06Zm40.9,0-.13-.87.43-.07.13.87Zm-41.78-.12-.43-.07.13-.87.44.07Zm42.65,0-.14-.87.44-.07.14.87ZM120.05,277l-.44-.07.15-.87.43.07Zm44.39,0-.14-.87.43-.07.15.87Zm-45.26-.12-.44-.08.15-.86.44.07Zm46.13,0-.15-.87.44-.07.15.86Zm-47-.13-.44-.08.16-.87.43.08Zm47.87,0-.15-.87.43-.08.16.87Zm-48.74-.14-.43-.08.15-.86.44.08Zm49.61,0-.16-.87.43-.07.17.86Zm-50.48-.14-.43-.08.16-.87.43.09Zm51.35,0-.17-.87.44-.08.16.87Zm-52.22-.15-.43-.08.17-.87.43.09Zm53.09,0-.17-.86.43-.09.17.87ZM114.84,276l-.44-.09.18-.86.43.09Zm54.81,0-.17-.86.43-.09.18.86ZM114,275.86l-.43-.09.18-.86.43.09Zm56.55,0-.18-.86.43-.09.18.86Zm-57.41-.16-.43-.09.19-.86.42.09Zm58.27,0-.19-.86.43-.09.19.86Zm-59.13-.16-.43-.1.19-.86.43.1Zm60,0-.19-.87.43-.09.2.86Zm-60.85-.17-.44-.1.21-.86.42.1Zm61.72,0-.2-.86.42-.1.21.86Zm-62.59-.18-.42-.1.2-.85.43.1Zm63.45,0-.21-.86.43-.1.21.85Zm-64.3-.18-.43-.11.21-.85.42.1Zm65.15,0-.2-.85.42-.11.21.86Zm-66-.18-.43-.11.22-.85.42.1Zm66.87,0-.21-.86.42-.1.22.85ZM108,274.46l-.43-.11.23-.85.42.11Zm68.59,0-.22-.85.42-.11.22.85Zm-69.44-.19-.43-.12.23-.85.42.12Zm70.29,0-.22-.85.42-.12.23.85Zm-71.15-.2-.42-.12.23-.84.42.11Zm72,0-.23-.85.43-.12.23.85Zm-72.85-.2-.42-.12.24-.85.42.12Zm73.71,0-.24-.84.42-.12.24.84Zm-74.56-.2-.42-.12.24-.85.42.12Zm75.41,0-.25-.84.43-.12.24.84Zm-76.26-.21-.42-.12.25-.85.42.13Zm77.1,0-.24-.85.42-.12.25.84ZM102.85,273l-.43-.13.26-.84.42.13Zm78.79,0-.25-.85.42-.12.25.84ZM102,272.79l-.42-.14.26-.84.42.13Zm80.49,0-.26-.84.42-.13.26.84Zm-81.34-.23-.42-.13.26-.84.43.13Zm82.18,0-.27-.84.42-.13.27.84Zm-83-.24-.43-.13.28-.84.42.13Zm83.86,0-.27-.84.42-.13.27.84ZM99.46,272l-.42-.14.28-.84.42.14ZM185,272l-.27-.84.41-.14.28.84Zm-86.39-.25-.42-.14.28-.83.42.14Zm87.23,0-.28-.83.41-.15.29.84Zm-88.07-.25-.42-.15.29-.83.42.14Zm88.91,0-.29-.84.41-.14.29.83Zm-89.75-.26-.42-.15.3-.83.41.14Zm90.58,0-.29-.83.41-.15.3.83Zm-91.41-.27-.42-.15.3-.83.41.15Zm92.24,0-.3-.83.42-.15.3.83Zm-93.08-.27-.41-.15.3-.83.41.15Zm93.91,0-.3-.83.41-.15.31.83Zm-94.74-.28-.42-.15.31-.83.42.16Zm95.57,0-.31-.83.42-.15.3.82Zm-96.4-.29-.42-.16.32-.82.41.16Zm97.23,0-.31-.82.41-.15.31.82Zm-98.06-.28-.41-.16.32-.83.41.16Zm98.88,0-.31-.82.4-.16.32.82Zm-99.7-.3-.42-.16.33-.82.41.16Zm100.53,0-.33-.82.41-.16.33.81ZM91.13,269l-.41-.17.33-.82.41.17Zm102.18,0-.33-.82.4-.16.33.81Zm-103-.31-.41-.17.34-.81.4.17Zm103.81,0-.33-.82.41-.16.33.81Zm-104.63-.32-.41-.17.35-.81.4.17Zm105.45,0-.34-.81.4-.17.34.81Zm-106.26-.32-.41-.17.34-.81.41.17Zm107.07,0-.35-.81.4-.17.35.81Zm-107.89-.33-.41-.17.36-.81.4.17Zm108.7,0-.35-.8.4-.18.35.81Zm-109.51-.33-.41-.18.36-.81.4.18Zm110.31,0-.35-.8.4-.18.35.8Zm-111.12-.34-.41-.18.37-.8.4.18Zm111.93,0-.36-.8.39-.18.37.81ZM85.43,266.5l-.4-.18.37-.8.4.18Zm113.54,0-.37-.8.4-.18.37.8Zm-114.34-.36-.41-.18.38-.8.4.19Zm115.14,0-.37-.79.39-.19.38.8Zm-116-.36-.4-.19.38-.8.4.19Zm116.74,0-.37-.79.39-.19.38.79ZM83,265.38l-.4-.19.39-.8.39.19Zm118.34,0-.38-.79.39-.19.38.79ZM82.23,265l-.4-.19.39-.79.39.19Zm119.92,0-.39-.79.4-.19.38.79Zm.79-.39-.39-.78.39-.2.39.79Zm-121.51,0-.39-.19.39-.79.39.19Zm122.3-.39-.4-.79.39-.19.4.78Zm-123.09,0-.4-.2.4-.79.4.2Zm123.87-.4-.4-.78.39-.2.4.78Zm-124.66,0-.39-.21.4-.78.39.2Zm125.44-.4-.4-.78.38-.2.41.78Zm-126.23,0-.39-.2.41-.78.39.2Zm127-.4-.41-.78.39-.2.41.78ZM78.28,263l-.39-.21.41-.78.39.21Zm128.57-.4-.42-.78.39-.2.42.77Zm-129.35,0-.39-.21.42-.77.38.21Zm130.12-.4-.42-.77.39-.21.42.77Zm-130.9,0-.39-.21.42-.77.39.21Zm131.67-.4L208,261l.38-.22.43.77Zm-132.45,0-.38-.22.42-.77.39.22Zm133.22-.41-.43-.77.39-.21.43.76Zm-134,0-.39-.22.44-.77.38.22Zm134.76-.41-.43-.77.38-.22.43.77Zm-135.53,0-.39-.22.44-.76.38.22Zm136.29-.41-.44-.76.38-.22.44.76Zm-137.06,0-.38-.22.44-.76.38.22ZM211.46,260l-.45-.77.38-.22.44.76ZM72.87,260l-.38-.22.44-.76.38.22Zm139.34-.41-.45-.76.38-.23.45.76Zm-140.1,0-.38-.22.45-.76.38.23ZM213,259.1l-.46-.75.38-.23.46.75Zm-141.62,0-.38-.23.46-.75.37.22Zm142.37-.43-.46-.74.37-.24.47.75Zm-143.13,0-.37-.23.46-.75.37.23Zm143.88-.43-.46-.74.37-.24.46.75Zm-144.63,0-.38-.23.47-.75.38.23Zm145.38-.43-.47-.74.37-.23.47.74Zm-146.13,0-.37-.23.47-.75.37.24ZM216,257.24l-.47-.74.36-.24.48.74Zm-147.62,0L68,257l.48-.74.37.24Zm148.36-.44-.48-.73.37-.24.48.73Zm-149.1,0-.37-.24.48-.74.37.24Zm149.84-.44-.48-.73.36-.24.49.73Zm-150.58,0-.37-.24.49-.73.36.24Zm151.31-.43-.49-.74.37-.24.49.73Zm-152-.06-.36-.24.49-.73.36.24Zm152.78-.44-.49-.72.36-.25.5.73Zm-153.51-.05L65,255l.5-.72.36.24Zm154.24-.44-.49-.73.35-.25.51.73Zm-155-.06-.36-.25.5-.72.36.25Zm155.7-.44-.51-.73.36-.24.51.72Zm-156.43-.06-.36-.25.51-.72.36.25Zm157.15-.45-.51-.72.36-.25.51.72Zm-157.87-.06-.36-.25.51-.72.36.25Zm158.59-.45-.51-.71.35-.26.52.72Zm-159.31-.06-.36-.26.51-.71.36.25Zm160-.45-.51-.72.35-.25.52.71Zm-160.74-.07-.35-.26.51-.71.36.26Zm161.46-.45-.52-.71.35-.26.52.71Zm-162.17-.07-.36-.26.53-.71.35.26Zm162.88-.46-.53-.7.35-.27.53.71Zm-163.59-.07L60,251.4l.53-.7.35.26Zm164.29-.45-.53-.71.35-.26.53.7Zm-165-.08-.35-.26.53-.7.35.26Zm165.7-.46-.53-.7.35-.26.53.69Zm-166.4-.07-.35-.27.53-.7.35.27Zm167.1-.47-.54-.69.35-.27.54.69Zm-167.8-.07-.35-.27.54-.7.35.27Zm168.5-.47-.55-.69.35-.27.54.69Zm-169.2-.07-.35-.28.55-.69.34.27Zm169.89-.47-.55-.69.34-.28.55.69ZM56.85,249l-.35-.28.55-.68.35.27Zm171.27-.48-.55-.68.34-.28.55.69Zm-172-.08-.34-.27.55-.69.34.28Zm172.64-.47-.55-.68.34-.28.55.68Zm-173.33-.08-.34-.28.56-.68.34.28Zm174-.48-.56-.68.34-.28.56.68Zm-174.69-.09-.34-.28.57-.67.33.28Zm175.37-.48-.56-.67.33-.28.57.67Zm-176-.08-.33-.28.56-.68.34.29Zm176.73-.48-.57-.68.33-.28.57.67Zm-177.4-.09-.34-.29.57-.67.34.29Zm178.07-.49-.58-.66.34-.29.57.66Zm-178.74-.09-.34-.28.58-.67.33.29Zm179.4-.48-.58-.67.34-.29.58.66ZM52.1,245l-.33-.29.58-.66.33.28Zm180.74-.5-.59-.66.33-.29.59.66Zm-181.41-.09-.32-.29.58-.66.33.29Zm182.07-.49-.59-.66.33-.29.58.65Zm-182.72-.09-.33-.3.59-.65.32.29Zm183.37-.5-.59-.66.33-.29.59.65Zm-184-.1-.33-.29.6-.65.32.29Zm184.68-.5-.59-.65.32-.29.6.65Zm-185.33-.09-.33-.3.6-.65.32.3Zm186-.51-.6-.64.32-.3.61.64Zm-186.63-.09-.32-.3.6-.65.32.31Zm187.28-.51-.6-.64.31-.3.61.64Zm-187.93-.09-.32-.31.61-.64.32.3Zm188.57-.51-.61-.64.32-.31.61.64Zm-189.21-.1-.31-.31.61-.63.31.3Zm189.85-.52-.62-.63.32-.3.61.63ZM46.9,240.23l-.32-.31.61-.63.32.3ZM238,239.71l-.62-.63.32-.31.61.63Zm-191.75-.1L46,239.3l.62-.63.31.31Zm192.38-.52-.62-.63.31-.31.62.63Zm-193-.1-.32-.31.63-.62.31.31Zm193.62-.52-.62-.63.31-.31.62.62ZM45,238.37l-.31-.32.63-.62.31.31Zm194.87-.53-.62-.62.3-.31.63.61Zm-195.49-.1-.31-.32.63-.61.31.31Zm196.11-.53-.63-.62.31-.31.63.61Zm-196.73-.1-.3-.32.63-.61.31.31Zm197.34-.54-.63-.61.3-.31.64.6Zm-198-.1-.3-.32.64-.6.3.31Zm198.56-.54-.64-.6.31-.32.64.6Zm-199.17-.1-.3-.32.64-.6.3.32Zm199.78-.54-.64-.6.3-.32.64.6ZM42,235.19l-.3-.32.64-.6.3.32Zm201-.55-.65-.59.3-.33.65.6Zm-201.58-.1-.3-.32.65-.6.3.33ZM243.53,234l-.65-.59.29-.33.65.59Zm-202.78-.1-.29-.33.65-.59.3.33Zm203.37-.55-.65-.59.29-.33.66.59Zm-204-.11-.29-.32.66-.59.29.33Zm204.55-.55-.66-.59.29-.32.66.58Zm-205.13-.1-.3-.33.66-.59.29.33ZM245.29,232l-.66-.58.29-.33.66.57ZM39,231.92l-.29-.34.67-.58.29.34Zm206.88-.57-.66-.57.28-.34.67.58Zm-207.46-.1-.28-.34.66-.57.29.33Zm208-.57-.67-.57.28-.33.67.57Zm-208.61-.1-.29-.34.68-.56.28.33ZM247,230l-.67-.57.28-.34.67.57Zm-209.75-.1-.28-.34.67-.57.28.34Zm210.32-.58-.68-.56.28-.34.68.56Zm-210.89-.1-.28-.34.68-.56.28.34Zm211.45-.58-.68-.56.28-.34.68.56Zm-212-.1-.28-.34.69-.56.27.34ZM248.71,228l-.68-.55.27-.34.69.55Zm-213.12-.09-.28-.35L36,227l.28.34Zm213.67-.59-.68-.55.27-.35.69.55ZM35,227.18l-.27-.35.69-.54.27.34Zm214.78-.59-.69-.55.27-.35.7.55Zm-215.33-.1-.27-.35.7-.54.27.34Zm215.88-.6-.7-.54.27-.35.7.54Zm-216.42-.1-.27-.35.7-.53.27.34Zm217-.6-.7-.54.27-.34.7.53Zm-217.5-.1-.27-.34.7-.54.27.35Zm218-.6-.7-.54.26-.34.7.53Zm-218.57-.1L32.6,224l.7-.53.27.35Zm219.1-.61-.71-.53.27-.35.7.53Zm-219.63-.09-.27-.35.71-.53.26.35Zm220.16-.62-.71-.52.26-.35.71.52ZM31.81,223l-.26-.35.71-.52.26.35ZM253,222.36l-.71-.52.26-.35.71.51Zm-221.73-.09-.26-.36.71-.51.26.35Zm222.25-.62-.72-.52.26-.36.71.51Zm-222.77-.09-.25-.36.71-.51.26.35Zm223.28-.64-.72-.5.26-.36.72.51Zm-223.79-.08-.25-.36.72-.51.25.36Zm224.3-.64-.72-.5.25-.36.72.5Zm-224.8-.08-.26-.36.73-.51.25.36Zm225.3-.64-.72-.5.25-.37.73.5Zm-225.81-.09L29,219l.73-.5.25.36Zm226.32-.64-.73-.5.24-.36.73.49Zm-226.81-.08-.25-.37.73-.49.24.36Zm227.3-.66-.73-.49.24-.36.73.49Zm-227.8-.07-.24-.37.73-.49.24.37Zm228.29-.66-.73-.49.24-.36.73.48ZM27.77,217.2l-.24-.37.74-.48.24.37ZM257,216.54l-.74-.48.24-.37.74.48Zm-229.75-.07-.24-.37.74-.48L28,216Zm230.23-.67-.74-.48L257,215l.75.48Zm-230.71-.07-.24-.37.75-.48.23.37ZM258,215.05l-.74-.47.24-.37.74.47ZM26.34,215l-.24-.37.75-.47.23.37Zm232.13-.68-.75-.46.23-.38.75.47Zm-232.6-.06-.23-.38.74-.46.23.37Zm233.06-.69-.75-.46.23-.37.75.46ZM25.4,213.49l-.23-.37.75-.46.23.37Zm234-.69-.75-.46.23-.37.75.45Zm-234.45-.06-.22-.38.75-.45.23.37Zm234.91-.7-.75-.45.22-.38.76.45ZM24.49,212l-.23-.37.76-.45.23.37Zm235.81-.7-.75-.45.22-.38.76.45ZM24,211.23l-.22-.38.76-.45.22.38Zm236.71-.71-.76-.45.22-.38.76.44ZM23.6,210.47l-.23-.38.77-.44.22.38Zm237.59-.72-.76-.44.22-.38.76.44Zm-238-.05-.22-.38.76-.43.22.38ZM261.63,209l-.77-.43.22-.39.77.43Zm-238.91,0-.22-.38.77-.43.22.38Zm239.34-.73-.77-.43.22-.38.77.42Zm-239.77,0-.21-.38.77-.43.21.38Zm240.2-.74-.77-.42.21-.38.77.42Zm-240.62,0-.22-.39.78-.42.21.39Zm241-.74-.77-.42.21-.39.77.41Zm-241.46,0-.21-.39.77-.42.21.39Zm241.88-.75-.78-.42.21-.39.78.41Zm-242.3,0-.21-.39.78-.41.21.39Zm242.71-.76-.78-.41.21-.39.78.41Zm-243.12,0-.2-.39.78-.4.2.38Zm243.53-.76-.78-.41.2-.39.78.4Zm-243.93,0-.2-.39.78-.4.2.39Zm244.33-.77-.78-.4.2-.39.78.39Zm-244.73,0-.2-.4.78-.39.2.39ZM265,202.73l-.79-.4.2-.39.79.39Zm-245.53,0-.19-.39.79-.39.19.39Zm245.92-.79-.79-.39.2-.39.79.38ZM19,201.93l-.19-.39.79-.39.19.39Zm-.38-.79-.19-.4.79-.38.19.4Zm247.08,0-.79-.39.19-.39.79.38Zm-247.46-.79-.19-.4.8-.38.18.4Zm247.84,0-.79-.38.18-.4.8.38Zm-248.22-.79-.18-.4.8-.37.18.4Zm248.6,0-.8-.38.18-.4.8.37Zm-249-.79-.18-.4.8-.36.19.4Zm249.34,0-.8-.37.18-.4.8.37ZM17.16,198l-.18-.4.8-.36.18.4Zm250.07,0-.81-.36.18-.4.81.36ZM16.8,197.15l-.17-.4.8-.36.18.4Zm250.79,0-.81-.35.18-.4.81.35Zm-251.14-.77-.18-.4.81-.35.18.4Zm251.49,0-.8-.35.17-.4.81.35ZM16.1,195.54l-.17-.41.81-.34.17.4Zm252.19,0-.81-.35.18-.4.81.34Zm-252.53-.76-.17-.41.81-.34.17.41Zm252.88-.06-.81-.34.17-.4.81.33Zm-253.22-.75-.17-.41.82-.34.16.41ZM269,193.86l-.82-.34.17-.41.82.34ZM15.09,193.1l-.17-.41.82-.33.16.41ZM269.31,193l-.81-.33.16-.4.82.32Zm-254.55-.75-.16-.41.81-.33.17.41Zm254.88-.07-.82-.32.17-.41.82.32Zm-255.21-.75-.16-.42.83-.31.15.41ZM270,191.39l-.82-.32.16-.41.82.31Zm-255.85-.76-.16-.41.82-.31.16.41Zm256.17-.07-.83-.32.16-.41.82.31ZM13.8,189.81l-.15-.42.82-.3.16.41Zm256.8-.08-.83-.31.16-.41.82.31ZM13.5,189l-.15-.42.82-.3.15.42Zm257.41-.08-.83-.3.15-.42.83.3Zm-257.72-.75-.14-.42.82-.29.15.41Zm258-.08-.83-.3.15-.42.83.3ZM12.9,187.32l-.15-.42.83-.29.15.41Zm258.61-.09-.83-.29.14-.42.83.29Zm-258.9-.75-.15-.41.84-.29.14.42Zm259.19-.09-.83-.29.14-.41.83.28Zm-259.48-.74-.14-.42L13,185l.14.41Zm259.76-.1-.83-.28.14-.42.84.28Zm-260-.74-.14-.42.84-.27.14.41Zm260.33-.1-.84-.28.14-.41.84.27ZM11.77,184l-.14-.42.84-.27.13.42Zm260.87-.1-.84-.27.14-.42.84.27ZM11.5,183.13l-.14-.42.84-.26.14.41ZM272.91,183l-.84-.26.13-.42.84.26Zm-261.68-.73-.13-.43.84-.25.13.42Zm262-.11-.85-.26.13-.43.85.26ZM11,181.44l-.12-.42.84-.25.13.42Zm262.46-.11-.84-.26.13-.42.84.25ZM10.72,180.6l-.12-.43.84-.24.13.42Zm263-.12-.85-.25.12-.42.85.25Zm-263.22-.73-.12-.43.85-.24.12.42Zm263.46-.12-.84-.24.12-.42.84.24Zm-263.7-.73-.12-.43.85-.23.12.42Zm263.94-.12-.84-.23.11-.43.85.24ZM10,178.05l-.12-.43.85-.23.12.42Zm264.41-.12-.85-.23.12-.42.85.23ZM9.77,177.19l-.12-.42.85-.23.12.43Zm264.87-.11-.85-.23.11-.42.85.22Zm-265.1-.74-.11-.43.85-.22.11.43Zm265.32-.11L274,176l.11-.42.85.22ZM9.32,175.49l-.11-.43.86-.22.1.43Zm265.76-.12-.85-.22.11-.42.85.21Zm-266-.74L9,174.2l.86-.21.1.43Zm266.19-.12-.86-.21.11-.42.85.2ZM8.9,173.77l-.1-.43.85-.2.1.43Zm266.61-.12-.86-.2.1-.43.86.2ZM8.69,172.91l-.09-.43.85-.2.1.43Zm267-.12-.86-.19.1-.43.86.19ZM8.5,172.05l-.1-.43.86-.19.1.43Zm267.4-.12-.85-.19.09-.43.86.19ZM8.31,171.19l-.1-.43.86-.19.1.43Zm267.78-.12-.85-.19.09-.43.86.19Zm-268-.74L8,169.89l.86-.18.09.43Zm268.16-.12-.86-.19.09-.43.86.19ZM7.94,169.46,7.85,169l.86-.18.09.43Zm268.52-.12-.86-.17.08-.43.87.17ZM7.76,168.6l-.08-.44.86-.17.09.43Zm268.87-.12-.86-.17.09-.43.86.16Zm-269-.75-.08-.44.87-.16.08.43Zm269.21-.12-.86-.16L276,167l.87.17ZM7.43,166.86l-.08-.43.87-.16.08.43ZM277,166.74l-.87-.16.08-.43.87.16ZM7.27,166l-.08-.43.87-.16.08.44Zm269.85-.12-.86-.15.07-.43.87.15Zm-270-.75L7,164.69l.87-.15L8,165ZM277.28,165l-.87-.14.07-.44.87.15ZM7,164.25l-.07-.43.87-.15.07.44Zm270.45-.12-.87-.14.07-.43.87.14ZM6.83,163.38l-.07-.44.87-.13.07.43Zm270.73-.12-.87-.14.07-.43.87.13ZM6.7,162.51l-.07-.44.87-.13.07.43Zm271-.12-.87-.13.06-.44.87.13ZM6.57,161.63l-.07-.43.87-.13.07.44Zm271.26-.12-.87-.12L277,161l.87.13ZM6.44,160.76l-.06-.44.87-.12.06.44ZM278,160.64l-.87-.12.06-.44.87.12ZM6.32,159.88l-.06-.43.88-.12.05.44Zm271.75-.12-.87-.11.05-.44.88.12ZM6.21,159l-.06-.44.88-.11,0,.44Zm272-.12-.87-.11.05-.44.88.11ZM6.1,158.13l0-.44.87-.1L7,158ZM278.29,158l-.88-.1,0-.44.88.1ZM6,157.25l0-.44.88-.09,0,.43Zm272.39-.12-.88-.09.05-.44.88.1ZM5.9,156.38l0-.44.87-.09,0,.43Zm272.58-.12-.87-.09,0-.44.88.09ZM5.81,155.5l0-.44.88-.09,0,.44Zm272.76-.12-.87-.09,0-.43.88.08ZM5.73,154.62l0-.44.87-.08,0,.44Zm272.93-.12-.88-.08,0-.44.88.08Zm-273-.76,0-.44.88-.07,0,.43Zm273.09-.12-.88-.08,0-.43.87.07ZM5.57,152.86l0-.44.88-.07,0,.44Zm273.24-.12-.88-.07,0-.44.87.07ZM5.51,152l0-.44.88-.06,0,.43Zm273.37-.12-.88-.07,0-.43.88.06ZM5.44,151.1l0-.44.88-.06,0,.44Zm273.5-.12-.88-.06,0-.44.88.06ZM5.39,150.22l0-.44.88-.06,0,.44ZM279,150.1l-.88-.06,0-.43.88,0ZM5.34,149.33l0-.44.88,0,0,.44Zm273.7-.12-.87,0,0-.44.88,0ZM5.29,148.45l0-.44.88,0,0,.44Zm273.8-.12-.88,0,0-.44.88,0ZM5.25,147.57l0-.44.88,0,0,.43Zm273.88-.12-.88,0,0-.43.88,0ZM5.22,146.69l0-.44.88,0,0,.44Zm273.94-.12-.88,0,0-.44.88,0Zm-274-.76v-.44l.88,0v.44Zm274-.12-.88,0v-.44l.88,0Zm-274-.76v-.44l.88,0v.44Zm274-.13-.88,0v-.44l.88,0ZM5.15,144.05v-.43l.88,0V144Zm274.08-.14h-.88v-.44h.88ZM5.14,143.17v-.44H6v.44Zm274.1-.13h-.88v-.44h.88ZM5.13,142.29v-.45H6v.44Zm274.12-.14h-.88v-.7h.88v.7ZM6,141.41H5.13V141H6Zm272.35-.4v-.44h.88V141ZM6,140.53H5.13v-.44H6Zm272.35-.4v-.44h.88v.44ZM6,139.65H5.14v-.44H6Zm272.32-.4v-.43l.88,0v.44ZM6,138.77l-.88,0v-.44l.88,0Zm272.29-.39v-.44l.87,0,0,.44ZM6.06,137.9l-.88,0v-.44l.88,0Zm272.24-.4v-.43l.88,0v.44ZM6.09,137l-.88,0v-.44l.88,0Zm272.18-.39v-.44l.88,0v.44ZM6.12,136.14l-.88,0,0-.45.88,0Zm272.12-.38,0-.44.88,0,0,.44ZM6.16,135.27l-.88-.05,0-.44.88.05Zm272-.39,0-.44.87,0,0,.44Zm-272-.49-.88,0,0-.44.88,0Zm272-.39,0-.43.88,0,0,.44Zm-271.9-.49-.88,0,0-.44.88.06Zm271.85-.38,0-.44.88-.06,0,.44ZM6.31,132.64l-.88-.06,0-.44.87.06ZM278,132.25l0-.43.88-.07,0,.44ZM6.37,131.76l-.88-.06,0-.44.88.06ZM278,131.38l0-.44.87-.07,0,.44ZM6.43,130.89l-.88-.07,0-.44.88.07Zm271.48-.39,0-.43.87-.08,0,.44ZM6.5,130l-.87-.07,0-.44.87.08Zm271.34-.38,0-.44.87-.08,0,.44ZM6.58,129.14l-.88-.08,0-.44.87.08Zm271.18-.38,0-.44.87-.09,0,.44Zm-271.1-.5-.87-.08,0-.44.88.09Zm271-.38,0-.43.87-.1.05.44ZM6.75,127.39l-.87-.09,0-.44.88.1ZM277.58,127l-.05-.44.88-.09,0,.44ZM6.85,126.52l-.88-.1L6,126l.87.1Zm270.64-.38-.05-.44.87-.1.05.44ZM7,125.65l-.88-.11,0-.43.88.1Zm270.43-.38-.05-.44.87-.11.06.44ZM7.05,124.78l-.87-.11.05-.44.88.11Zm270.23-.38-.06-.44.87-.11.06.43ZM7.16,123.91l-.87-.12.06-.44.87.12Zm270-.39-.06-.43L278,123l0,.44ZM7.28,123l-.87-.12.06-.44.87.12ZM277,122.65l-.06-.43.87-.12.06.43ZM7.4,122.17,6.53,122l.06-.43.87.12Zm269.52-.38-.07-.44.88-.13.06.44ZM7.53,121.3l-.87-.13.06-.44.87.14Zm269.26-.38-.07-.43.87-.14.07.44ZM7.66,120.43l-.87-.13.07-.44.87.14Zm269-.38-.07-.43.87-.14.07.43ZM7.8,119.57l-.87-.15L7,119l.87.14Zm268.71-.38-.07-.44.87-.14.07.43ZM7.94,118.7l-.86-.15.07-.43.87.15Zm268.43-.38-.08-.43.87-.15.07.43ZM8.09,117.84l-.86-.16.07-.43.87.15Zm268.12-.38-.07-.44.86-.15.08.43ZM8.25,117l-.87-.16.08-.43.87.16Zm267.8-.38-.08-.43.87-.16.08.43ZM8.41,116.11l-.86-.17.08-.43.86.17Zm267.48-.38-.08-.43.86-.17.09.43ZM8.58,115.25l-.87-.17.09-.44.86.18Zm267.14-.38-.08-.43.86-.18.09.44Zm-267-.48-.86-.18.09-.43.86.18Zm266.8-.38-.09-.43.86-.18.09.43ZM8.93,113.53l-.86-.18.09-.43.86.18Zm266.44-.38-.1-.43.87-.18.09.43ZM9.11,112.67l-.86-.19.1-.43.86.19Zm266.07-.37-.09-.43.86-.2.09.44ZM9.3,111.81l-.86-.19.1-.43.86.2ZM275,111.44l-.1-.43.86-.2.1.43ZM9.5,111l-.86-.2.1-.43.86.2Zm265.29-.38-.1-.42.86-.21.1.43ZM9.69,110.1l-.85-.2.1-.43.86.21Zm264.9-.37-.1-.43.85-.21.11.43ZM9.9,109.25,9.05,109l.1-.43.86.21Zm264.48-.37-.1-.43.85-.21.11.43ZM10.11,108.4l-.85-.22.11-.42.85.21ZM274.17,108l-.11-.43.85-.22.11.43Zm-263.84-.48-.85-.22.11-.43.85.22ZM274,107.18l-.11-.43.85-.22.11.42Zm-263.4-.48-.85-.23.11-.42.85.23Zm263.17-.37-.11-.43.85-.23.11.43Zm-262.94-.48-.85-.23.12-.43.84.24Zm262.71-.37-.11-.42.85-.24.11.43ZM11,105l-.85-.24.12-.43.85.24Zm262.25-.37-.12-.43L274,104l.13.43Zm-262-.48-.85-.24.13-.42.84.24ZM273,103.79l-.13-.42.85-.25.12.43Zm-261.53-.47-.84-.25.13-.42.84.25ZM272.77,103l-.12-.42.84-.25.12.42Zm-261-.47-.84-.25.13-.43.84.26Zm260.78-.37-.13-.42.84-.26.13.42ZM12,101.63l-.84-.25.13-.43.84.26Zm260.26-.36-.13-.42.84-.26.13.42Zm-260-.48-.84-.26.14-.42.84.26ZM272,100.43l-.14-.41.84-.27.14.42ZM12.53,100l-.84-.27.14-.42.84.27Zm259.2-.35-.14-.42.84-.27.14.42ZM12.8,99.11,12,98.84l.14-.42.83.28Zm258.66-.34-.14-.42.83-.28.14.42ZM13.08,98.28,12.25,98l.14-.42.83.28Zm258.1-.35-.14-.41.83-.29.14.42ZM13.36,97.44l-.83-.28.15-.42.83.29Zm257.53-.34-.14-.41.83-.29.15.42ZM13.65,96.61l-.83-.29L13,95.9l.83.3Zm257-.34-.14-.41.82-.29.15.41ZM14,95.78l-.83-.3.15-.41.83.3Zm256.36-.33-.15-.41.82-.3.15.41ZM14.25,95l-.83-.3.15-.42.83.31ZM270,94.62l-.16-.41.83-.3.15.41ZM14.55,94.13l-.82-.31.15-.42.83.31ZM269.7,93.8l-.15-.41.82-.31.15.41ZM14.86,93.3,14,93l.16-.41.82.31ZM269.39,93l-.16-.41.82-.31.16.41Zm-254.21-.5-.82-.32.16-.41.82.32Zm253.89-.32-.16-.41.82-.32.16.41ZM15.5,91.66l-.82-.32.17-.42.81.33Zm253.25-.31-.16-.41.81-.33.17.41ZM15.83,90.84,15,90.51l.17-.41.81.33Zm252.59-.31-.16-.4.81-.34.17.41ZM16.16,90l-.82-.34.17-.41.82.34Zm251.93-.31-.17-.4.82-.34.16.41ZM16.5,89.21l-.82-.34.18-.41.81.35Zm251.25-.3-.17-.4.81-.34.18.4ZM16.84,88.4,16,88.06l.17-.41L17,88Zm250.57-.29-.17-.4.81-.35.17.41ZM17.19,87.59l-.81-.35.18-.4.8.35Zm249.88-.28-.18-.4.81-.35.17.4ZM17.54,86.79l-.81-.36.18-.4.81.35Zm249.17-.28-.17-.4.8-.36.18.4ZM17.9,86l-.81-.36.19-.4.8.36Zm248.46-.27-.18-.39L267,85l.18.4Zm-248.1-.53-.8-.37.18-.4.8.37ZM266,84.92l-.18-.4.8-.37.18.4ZM18.63,84.38l-.8-.37.19-.4.79.37Zm247-.25-.19-.4.8-.38.18.4ZM19,83.58l-.79-.37.19-.4.79.38Zm246.25-.25-.18-.39.79-.38.19.4ZM19.38,82.79l-.79-.38.19-.4.79.38Zm245.5-.24-.19-.4.79-.38.19.39ZM19.76,82,19,81.61l.2-.4.79.39Zm244.73-.24-.19-.39.79-.39.19.39ZM20.15,81.21l-.79-.39.2-.4.79.39Zm244-.23-.2-.39.79-.4.19.39ZM20.55,80.42,19.76,80l.2-.4.79.4Zm243.16-.22-.19-.39.78-.4.2.39ZM21,79.64l-.79-.4.21-.4.78.41Zm242.37-.22-.21-.39.79-.41.2.39Zm-242-.56-.78-.41.21-.39.77.41Zm241.56-.22-.2-.39.78-.41.2.39ZM21.76,78.08,21,77.67l.21-.4.78.42Zm240.74-.21-.2-.39.77-.41.21.39ZM22.17,77.3l-.77-.42.21-.38.77.42Zm239.92-.2-.21-.39.78-.42.21.39Zm-239.5-.57-.77-.42.21-.39.77.42Zm239.08-.2-.21-.38.77-.43.22.39ZM23,75.76l-.77-.43.21-.38.77.42Zm238.23-.2-.21-.38.76-.43.22.39ZM23.45,75l-.77-.43.22-.39.76.44Zm237.37-.19-.21-.38.76-.43.22.38ZM23.88,74.23l-.77-.44.22-.38.77.43ZM260.39,74l-.22-.38.76-.44.22.38ZM24.32,73.46,23.56,73l.22-.38.76.45ZM260,73.28l-.22-.37.76-.45.22.38ZM24.76,72.71,24,72.26l.23-.38.76.45Zm234.75-.18-.22-.38.75-.45.23.38ZM25.21,72l-.76-.45.23-.38.76.45Zm233.85-.17-.22-.38.75-.45.23.37ZM25.66,71.2l-.75-.46.23-.38.75.46Zm233-.17-.23-.37.75-.46.23.37ZM26.12,70.45,25.37,70l.24-.37.74.46Zm232-.17-.23-.37.75-.46.23.37ZM26.58,69.7l-.74-.47.23-.37.75.47Zm231.11-.16-.23-.37.74-.47.24.37ZM27.05,69l-.74-.48.24-.37.74.47Zm230.17-.16-.23-.37.74-.47.24.37ZM27.53,68.21l-.75-.47.24-.37.74.47Zm229.22-.15-.24-.37.74-.48.24.38ZM28,67.48,27.26,67l.25-.37.73.48Zm228.28-.15L256,67l.74-.48.24.37Zm-227.8-.59-.73-.48.24-.37.74.49Zm227.31-.14-.24-.37.73-.49.25.37ZM29,66l-.73-.49.25-.37.73.5Zm226.34-.14-.25-.37.73-.49.25.37ZM29.46,65.28l-.73-.49.25-.37.73.5Zm225.36-.14-.25-.36.73-.5.25.37ZM30,64.56l-.73-.5.25-.37.73.5Zm224.36-.14-.25-.36.73-.5.25.36ZM30.46,63.83l-.72-.5L30,63l.72.51Zm223.36-.13-.25-.36.72-.5.25.36ZM31,63.12l-.71-.51.25-.36.72.51ZM253.32,63l-.26-.36.72-.51.25.36ZM31.47,62.4l-.71-.51.26-.36.71.51Zm221.34-.13-.26-.35.71-.52.26.36ZM32,61.69l-.71-.52.26-.36.71.52Zm220.3-.13-.25-.35.71-.52.26.36ZM32.51,61l-.71-.52.26-.36.71.53Zm219.27-.12-.26-.35.7-.53.26.35ZM33,60.27l-.7-.52.26-.36.7.53Zm218.22-.11L251,59.8l.7-.53.27.36ZM33.56,59.57l-.7-.53.27-.35.69.53Zm217.16-.11-.26-.35.7-.54.27.35ZM34.09,58.88l-.7-.54.27-.35.7.54Zm216.1-.12-.26-.35.69-.54.27.35ZM34.63,58.18l-.7-.54.28-.35.69.54Zm215-.11-.27-.35.69-.54.27.35ZM35.17,57.49l-.69-.55.27-.34.69.54Zm214-.11-.28-.35.69-.54.28.34ZM35.72,56.8,35,56.25l.27-.34.69.55Zm212.85-.11-.27-.34.68-.55.28.34Zm-212.3-.57-.69-.56.28-.34.68.56ZM248,56l-.28-.34.69-.56.28.34Zm-211.2-.57-.68-.56.28-.34.68.56Zm210.65-.11-.28-.34.68-.56.28.34ZM37.38,54.76l-.68-.56.28-.34.68.56Zm209.53-.11-.28-.33.67-.57.29.34Zm-209-.57-.67-.56.28-.34.67.57ZM246.35,54l-.29-.33.67-.57.29.33ZM38.51,53.41l-.67-.57.29-.33.66.57Zm207.27-.1-.29-.33.67-.57.29.33Zm-206.7-.56-.67-.58.29-.33.67.58Zm206.13-.1-.29-.33.66-.58.29.33ZM39.66,52.09,39,51.51l.29-.34.67.59Zm205-.1-.29-.33.66-.58.29.33ZM40.24,51.43l-.66-.59.29-.33.66.59Zm203.81-.1-.29-.33.66-.58.29.33ZM40.82,50.77l-.65-.58.29-.33.65.59Zm202.65-.09-.3-.33.66-.59.29.33ZM41.41,50.12l-.65-.59.29-.33.65.6ZM242.88,50l-.3-.33.65-.59.3.32ZM42,49.47l-.65-.59.3-.33.65.6Zm200.29-.09-.3-.32.64-.6.3.32ZM42.6,48.83l-.65-.6.31-.32.64.6Zm199.09-.09-.3-.32.64-.6.3.32ZM43.2,48.19l-.64-.6.3-.32.64.6Zm197.89-.09-.3-.32.63-.61.31.32ZM43.8,47.56,43.17,47l.3-.32.64.61Zm196.68-.09-.3-.32.63-.61.31.32ZM44.41,46.92l-.63-.61.31-.32.63.62Zm195.47-.09-.31-.31.63-.62.31.32ZM45,46.3l-.62-.62.31-.32.62.62Zm194.24-.09-.31-.32.63-.61.31.31ZM45.64,45.67,45,45.05l.31-.31.62.62Zm193-.09-.32-.31.63-.62.31.31ZM46.26,45.05l-.62-.62.32-.31.61.62ZM238,45l-.31-.3.62-.63.31.31ZM46.89,44.44l-.62-.63.32-.31.61.63Zm190.51-.09-.32-.31.62-.63.31.31ZM47.51,43.82l-.61-.63.32-.3.61.63Zm189.26-.08-.32-.31.61-.63.32.3ZM48.15,43.22l-.61-.64.32-.3.6.63Zm188-.09-.32-.3.6-.64.32.3ZM48.78,42.61l-.6-.64.32-.3.6.64Zm186.72-.08-.32-.3.6-.65.32.31ZM49.42,42l-.6-.64.33-.3.59.65Zm185.44-.08-.32-.3.59-.65.33.3ZM50.07,41.42l-.6-.65.33-.3.59.65Zm184.14-.09-.32-.29.59-.65.33.29Zm-183.5-.5-.59-.66.33-.29.59.65Zm182.85-.09-.32-.29.59-.66.33.3Zm-182.19-.5-.59-.66.33-.29.58.66Zm181.54-.09-.32-.29.58-.66.33.3ZM52,39.66,51.44,39l.33-.29.58.66Zm180.24-.09-.33-.29.58-.66.33.29ZM52.68,39.08l-.58-.66.33-.29.58.66ZM231.6,39l-.33-.28.57-.67.33.29ZM53.34,38.5l-.57-.66.33-.29.57.67Zm177.59-.08-.33-.29.57-.67.34.29ZM54,37.93l-.57-.67.33-.28.57.67Zm176.26-.08-.34-.28.57-.68.34.29ZM54.68,37.37l-.57-.68.34-.28.56.68Zm174.91-.09-.33-.28.56-.68.34.29ZM55.35,36.81l-.56-.68.34-.28.56.68Zm173.57-.09-.34-.28.56-.68.34.28ZM56,36.25l-.56-.68.34-.28.56.68Zm172.21-.09-.34-.27.56-.69.34.28ZM56.71,35.7,56.15,35l.35-.27.55.68Zm170.85-.09-.34-.27.55-.69.34.27ZM57.39,35.15l-.55-.69.35-.27.54.69Zm169.48-.09-.34-.27.55-.69.34.27ZM58.08,34.61l-.55-.7.35-.27.54.7Zm168.1-.09-.34-.27.54-.7.35.28ZM58.77,34.07l-.54-.7.35-.27.53.7ZM225.49,34l-.35-.27.54-.7.35.27Zm-166-.45-.53-.7.35-.27.53.71Zm165.34-.09-.35-.26.53-.71.35.27ZM60.16,33l-.53-.7L60,32l.53.71Zm163.94-.09-.35-.26.52-.71.36.27ZM60.86,32.47l-.53-.7.36-.26.52.7Zm162.54-.09-.36-.26.53-.7.35.26ZM61.56,32,61,31.24,61.4,31l.52.71Zm161.13-.09-.36-.26.52-.71.36.26ZM62.27,31.44l-.52-.72.36-.25.51.71ZM222,31.35l-.36-.26.52-.72.36.26ZM63,30.92l-.51-.71.36-.26.51.72Zm158.29-.09-.36-.25.51-.72.36.26ZM63.69,30.42l-.5-.72.36-.26.5.72Zm156.86-.1-.36-.25.5-.72.37.25ZM64.41,29.91l-.5-.72.36-.25.5.72Zm155.42-.09-.36-.25.5-.72.36.25Zm-154.7-.4-.5-.73.37-.25.49.73Zm154-.1-.37-.25.5-.72.37.24Zm-153.26-.4-.49-.73.36-.24.5.73Zm152.53-.09-.36-.25.49-.73.36.25Zm-151.8-.4-.49-.73.37-.24.48.73Zm151.07-.09-.36-.25.48-.73.37.24ZM67.31,28l-.49-.74.37-.24.48.74Zm149.61-.1-.37-.24.48-.74.37.25ZM68,27.47l-.48-.74.37-.24.48.74Zm148.14-.1-.37-.24.48-.74.37.24ZM68.78,27l-.48-.74.37-.24.48.75Zm146.66-.09-.37-.24.48-.74.37.23ZM69.52,26.52,69,25.78l.38-.24.47.75Zm145.18-.1-.37-.23.47-.75.37.24ZM70.26,26.06l-.47-.75.37-.23.47.75ZM214,26l-.38-.23.47-.75.37.23ZM71,25.6l-.46-.75.37-.23.46.75Zm142.21-.1-.38-.23.46-.75.38.23ZM71.75,25.14l-.46-.75.38-.23.45.76ZM212.46,25l-.38-.23.45-.75.38.23Zm-140-.35-.45-.75.38-.23.44.76Zm139.2-.1-.37-.23.44-.75.38.22ZM73.25,24.25l-.45-.76.38-.23.45.76ZM211,24.14l-.38-.22.44-.76.38.22ZM74,23.8,73.56,23l.39-.22.43.77Zm136.18-.1-.38-.22.43-.76.39.22ZM74.76,23.37l-.43-.77.38-.21.43.76Zm134.66-.11L209,23l.43-.76.39.22ZM75.53,22.94l-.44-.77.39-.22.43.77Zm133.13-.11-.39-.21.43-.77.39.21ZM76.29,22.51l-.43-.77.39-.21.42.77Zm131.6-.11-.39-.21.43-.77.38.21ZM77.06,22.09l-.43-.77.39-.21.42.77ZM207.12,22l-.39-.21.42-.77.39.21Zm-129.3-.31-.41-.77.39-.21.41.78Zm128.52-.11-.38-.2.41-.78.39.21ZM78.6,21.26l-.42-.78.39-.2.41.78Zm127-.11-.39-.2.41-.78.39.2Zm-126.2-.3L79,20.07l.39-.2.41.78Zm125.42-.11-.39-.2.4-.78.39.2ZM80.15,20.45l-.4-.78.39-.2.4.78ZM204,20.34l-.4-.2.4-.78.4.2ZM80.93,20.06l-.4-.79.39-.2.4.79Zm122.29-.12-.39-.19.39-.79.4.2ZM81.71,19.67l-.39-.79.39-.2.39.79Zm120.72-.12-.39-.19.39-.79.39.19ZM82.49,19.28l-.38-.79.39-.19.38.79Zm119.15-.12-.39-.19.38-.79.4.19ZM83.28,18.9l-.38-.8.39-.18.38.79Zm117.57-.12-.4-.19.38-.79.4.19ZM84.07,18.52l-.38-.79.4-.19.37.8Zm116-.12-.4-.18.37-.8.4.19Zm-115.2-.25-.37-.8.4-.18.36.8ZM199.26,18l-.4-.18.37-.8.4.18ZM85.65,17.79l-.36-.8.4-.19.36.8Zm112.81-.12-.4-.19.36-.8.4.18Zm-112-.24-.36-.81.4-.18.36.81Zm111.21-.13-.41-.17.36-.81.4.18ZM87.25,17.07l-.36-.81.4-.17.36.8ZM196.85,17l-.4-.18.35-.81.4.18Zm-108.8-.23-.35-.81.4-.17.35.81Zm108-.12-.4-.18.34-.81.41.18ZM88.85,16.37l-.35-.81.41-.17.34.81Zm106.38-.12-.4-.17.34-.81.41.17ZM89.65,16l-.34-.82.41-.17.34.82Zm104.77-.13-.41-.17.34-.81.41.17Zm-104-.21-.33-.81.41-.17.33.81Zm103.15-.13-.41-.16.33-.82.41.17Zm-102.34-.2L91,14.55l.4-.16.33.82Zm101.52-.12-.41-.17.33-.82.41.17ZM92.09,15l-.32-.82.41-.16.32.82ZM192,14.92l-.41-.16.32-.82.41.16Zm-99.06-.2-.32-.82.41-.16.32.82Zm98.24-.12-.41-.16.31-.82.42.16Zm-97.42-.19-.32-.82.41-.16.32.82Zm96.6-.12-.41-.16.31-.82.41.15ZM94.55,14.1l-.31-.83.41-.15L95,14Zm95-.12-.41-.15.3-.83.42.15Zm-94.13-.19-.3-.82.41-.15.3.82Zm93.31-.12-.42-.15.3-.82.42.15Zm-92.49-.18-.29-.82.41-.15.3.83Zm91.66-.11-.42-.15.3-.83.41.15ZM97,13.2l-.29-.83.42-.14.29.83Zm90-.12-.42-.14.29-.83.42.14Zm-89.17-.17-.29-.83.42-.14.28.83Zm88.33-.11-.41-.15.28-.83.42.14Zm-87.5-.17-.28-.83.42-.14.28.83Zm86.67-.12-.42-.13.28-.84.42.14Zm-85.84-.16-.27-.83.42-.14.27.84Zm85-.11-.42-.14.27-.84.42.14Zm-84.16-.16-.27-.84.42-.13.27.84ZM183.67,12l-.42-.14.27-.84.42.14Zm-82.49-.16-.26-.84.42-.13.26.84Zm81.65-.11-.42-.13.26-.84.43.13ZM102,11.55l-.26-.84.42-.13.26.84Zm80-.11-.42-.13.25-.84.43.13Zm-79.13-.14-.25-.85.42-.12.25.84Zm78.29-.11-.42-.13.25-.84.42.12Zm-77.45-.14-.25-.85.43-.12.24.84Zm76.61-.11-.43-.12.25-.85.42.12Zm-75.77-.14L104.3,10l.42-.12.25.84Zm74.92-.1-.42-.12.24-.85.42.12Zm-74.07-.14-.24-.84.43-.12.23.85Zm73.23-.1-.43-.12.24-.85.42.12Zm-72.39-.13L106,9.48l.43-.12.23.85Zm71.54-.1-.42-.11.23-.86.42.12Zm-70.69-.13-.23-.85.43-.11.23.85Zm69.84-.1-.42-.11.22-.85.43.11Zm-69-.12L107.71,9l.43-.11.21.85Zm68.14-.1-.42-.11.21-.85.43.11Zm-67.29-.12-.22-.85L109,8.7l.22.85Zm66.44-.09-.42-.11.21-.85.43.1Zm-65.59-.12-.21-.86.43-.1.21.85Zm64.74-.09-.42-.1.2-.86.43.1Zm-63.89-.12-.2-.85.43-.11.2.86Zm63-.09-.43-.1.2-.85.43.1ZM111.34,9l-.2-.86.43-.09.2.85ZM172.66,9l-.42-.1.19-.86.43.1Zm-60.47-.11L112,8l.43-.1.19.86Zm59.62-.09-.43-.09.19-.86.43.09Zm-58.76-.1-.19-.86.43-.1.19.86ZM171,8.58l-.43-.1.18-.86.44.1Zm-57-.11-.18-.86.43-.09.18.86Zm56.18-.08-.43-.08.18-.87.43.09Zm-55.32-.1-.18-.86.43-.09.18.87Zm54.46-.07-.43-.09.17-.86.44.08Zm-53.6-.1-.17-.86.43-.09.17.87Zm52.74-.07L167.94,8l.17-.86.43.08ZM116.49,8l-.17-.86.44-.08.16.86Zm51-.07-.43-.08.16-.86.43.08Zm-50.16-.09-.16-.86.44-.08.15.86Zm49.3-.07-.44-.07.16-.87.43.08Zm-48.44-.08-.15-.87.44-.08.15.87Zm47.57-.07-.43-.08.15-.86.43.07Zm-46.7-.08-.15-.87.44-.08.14.87Zm45.84-.07-.44-.07.15-.87.43.07Zm-45-.08-.14-.87.44-.07.14.87Zm44.11-.06-.43-.07.14-.87.43.07ZM120.81,7.2l-.14-.87.44-.07.13.87Zm42.38-.06-.44-.06.13-.88.44.07Zm-41.51-.07-.13-.87.43-.07.13.87ZM162.32,7,161.88,7l.13-.87.44.06Zm-39.77-.07-.13-.87.44-.07.12.88Zm38.9-.06L161,6.82l.12-.87.43.06Zm-38-.06-.11-.88.43-.06.12.88Zm37.17-.06-.43,0,.11-.88.44.06Zm-36.3-.06-.11-.87.44-.06.11.87Zm35.43,0-.44-.06.11-.87.44.06Zm-34.56-.06-.1-.88.43,0,.11.87Zm33.69,0-.44,0,.11-.88.44.06ZM126,6.48l-.11-.87.44-.05.1.87Zm31.94,0-.44-.05.1-.88.44,0ZM126.9,6.38l-.1-.87.44,0,.09.87Zm30.2,0-.44,0,.09-.87.44,0Zm-29.33,0-.09-.88.44,0,.09.87Zm28.45,0-.43,0,.08-.87.44,0Zm-27.58,0-.08-.88.44,0,.08.87Zm26.71,0-.44,0,.09-.88.43,0Zm-25.83,0-.08-.87.43,0,.08.87Zm25,0L154,6l.07-.88.44,0ZM130.39,6l-.07-.88.43,0,.08.88ZM153.6,6l-.43,0,.06-.88.45,0ZM131.26,6l-.06-.87.43,0,.07.88Zm21.47,0-.44,0,.06-.88.44,0Zm-20.59,0L132.08,5l.44,0,.06.88Zm19.71,0-.44,0,.06-.88.44,0ZM133,5.84,133,5l.44,0,0,.88Zm18,0-.44,0,.05-.87.44,0Zm-17.09,0,0-.88.44,0,.05.88Zm16.21,0-.44,0,.05-.87.44,0Zm-15.33,0-.05-.88.44,0,0,.88Zm14.46,0-.44,0,0-.88.44,0Zm-13.59,0,0-.88.44,0,0,.88Zm12.71,0-.44,0,0-.88.44,0Zm-11.83,0,0-.88.44,0,0,.88Zm10.95,0H147l0-.88h.45Zm-10.08,0,0-.89h.44l0,.88Zm9.21,0h-.44l0-.88h.44Zm-8.34,0,0-.88h.44l0,.88Zm7.46,0h-.44l0-.88h.44Zm-6.58,0,0-.88h.44l0,.88Zm5.7,0h-.44l0-.88h.44Zm-4.82,0,0-.88h.44v.88Zm3.94,0h-.44V4.66H144Zm-3.07,0V4.66h.44v.89Zm2.2,0h-.44V4.65h.44Zm-1.32,0V4.65h.42l0,.88Z"/><g class="cls-4"><path class="cls-5" d="M40.5,172l.11-.56c1.33-6.74,16.21-71.8,88.25-34.35,0,0,17.9,5.66,24.72,5.53s9.1-13.5,11.94-20.63,8.92-8.48,10.39-7.38-.36,6.47-.36,6.47,5.59-14.17,14.33-11.69c3,.83,1.46,6.2,1.46,6.2S196.53,103,205,105.4c3.82,1.08,1.47,9.54,1.47,9.54s4.57-2.34,6.61,1.32c2.54,4.53-11.83,32.4-18.15,42C187.25,169.79,165.25,187.08,148,187,127.75,186.92,73.88,150.13,40.5,172Z"/><path class="cls-6" d="M154.72,146.26s-3.94,4.43-1.51,6.89c3.83,3.89,13.9,3.61,13.9,3.61s5.56-5.16,1.08-9.57C165.83,144.86,154.72,146.26,154.72,146.26Z"/><path class="cls-7" d="M109,158.88s.47-.16,1.36-.37,2.21-.51,3.91-.77,3.78-.49,6.17-.67a66.66,66.66,0,0,1,8,0,87.18,87.18,0,0,1,9.5.93,49,49,0,0,1,5.12,1l5.28,1.2a37.6,37.6,0,0,0,5.36,1,25.93,25.93,0,0,0,5.5,0c3.62-.42,7.27-1.88,9.59-4.64a9.58,9.58,0,0,0,2.29-4.68,9,9,0,0,0,.06-1.2,3.89,3.89,0,0,0-.09-.67,2.05,2.05,0,0,1-.16-.41,5,5,0,0,0-1.6-1.7c-3-1.84-6.84-2.38-10.36-2.61-.9,0-1.79-.06-2.67,0s-1.8,0-2.72-.11a45,45,0,0,1-5.24-.89,78.09,78.09,0,0,1-9.14-2.77c-5.55-2-10-4.12-13.09-5.56l-4.84-2.35,5,2c3.18,1.28,8,2.58,13.37,4.67a77,77,0,0,0,9,2.53,41.39,41.39,0,0,0,5,.67c.84,0,1.8,0,2.63,0s1.85,0,2.78,0c3.73.22,7.68.61,11.37,2.79a6.92,6.92,0,0,1,2.32,2.47c.12.32.23.64.33,1a3.83,3.83,0,0,1,.12.76,9.37,9.37,0,0,1-.06,1.71,11.44,11.44,0,0,1-2.7,5.76,16.63,16.63,0,0,1-11,5.22,27.23,27.23,0,0,1-5.92,0,39.1,39.1,0,0,1-5.6-1.1l-5.24-1.29a50.28,50.28,0,0,0-5-1.15,85,85,0,0,0-9.32-1.26c-2.9-.31-5.57-.29-7.95-.35s-4.44.12-6.14.29-3,.32-3.93.49A11.82,11.82,0,0,0,109,158.88Z"/><path class="cls-7" d="M175.75,120.42s-1.94,6.44-4.12,12.82c-1.09,3.2-2.21,6.37-3.23,8.76l-.69,1.63c-.21.48-.52,1-.72,1.32-.45.74-.7,1.17-.7,1.17L164,144l.56-.77c.17-.27.41-.5.66-.93l.83-1.46c1.23-2.12,2.71-5.15,4.16-8.17C173.06,126.59,175.75,120.42,175.75,120.42Z"/><path class="cls-7" d="M191.34,115.6a152.73,152.73,0,0,1-7.9,17.45c-1.13,2.12-2.36,4.2-3.56,6.12s-2.47,3.65-3.6,5.11c-.56.72-1.15,1.35-1.63,1.92a16.48,16.48,0,0,1-1.35,1.44l-1.24,1.21-2-2.44,1.2-1a14.16,14.16,0,0,0,1.34-1.2c.49-.5,1.08-1,1.66-1.67,1.19-1.28,2.51-2.85,3.85-4.6s2.7-3.7,4-5.7A153.63,153.63,0,0,0,191.34,115.6Z"/><path class="cls-7" d="M206.44,114.94a5.62,5.62,0,0,0-2.26,1.08,21.24,21.24,0,0,0-4.56,4.79,60.22,60.22,0,0,0-4.79,8.06c-1.49,3.08-3,6.47-4.8,9.74-3.48,6.55-7.6,12.89-12,16.77a16.71,16.71,0,0,1-6.24,3.7,10.88,10.88,0,0,1-2.14.41l-.79,0,0-3.16h.54a7.7,7.7,0,0,0,1.55-.22,13.8,13.8,0,0,0,5.29-2.85c4.13-3.27,8.51-9.25,12.24-15.54,1.91-3.14,3.55-6.4,5.29-9.44a57.59,57.59,0,0,1,5.36-7.86,21,21,0,0,1,4.92-4.57A5.62,5.62,0,0,1,206.44,114.94Z"/><path class="cls-8" d="M154.72,146.26s3.57,3.26-1.51,6.89C153.21,153.15,150.79,150.23,154.72,146.26Z"/><path class="cls-9" d="M154.48,109.24a65.87,65.87,0,0,0-1.17-10.87c-.29-1.8-.59-3.63-.82-5.52l2-.25c.23,1.86.52,3.66.81,5.44a69,69,0,0,1,1.19,11.2Z"/><path class="cls-9" d="M197.3,76.36c-12.09,3.78-43.33,2.89-43.48,38.85h0V141.5h2.73V115.35C197.7,113.85,194.63,79,197.3,76.36Z"/><path class="cls-9" d="M123,85.89c6,1,23.54,1.06,28.08,29.46C131.5,116.7,123,85.89,123,85.89Z"/><path class="cls-9" d="M137.31,54.7S129,84.94,152.56,93.19c.2.07.39.15.59.21l0-.13a.33.33,0,0,0,0,.06c.35.39.66.13.85-.21a.28.28,0,0,1,0,.09C165.7,66.14,144.09,58.32,137.31,54.7Z"/><path class="cls-9" d="M155.86,123.75l-2.07-.07a9.87,9.87,0,0,0-1.52-4.78,21.75,21.75,0,0,0-1.48-2.3,14,14,0,0,0-.94-1.08c-.31-.33-.62-.65-.91-1l1.62-1.29a11,11,0,0,0,.79.88,13.68,13.68,0,0,1,1.1,1.28,21.75,21.75,0,0,1,1.62,2.51A11.8,11.8,0,0,1,155.86,123.75Z"/><path class="cls-10" d="M155.55,110.81s0-.77,0-2.12a16.55,16.55,0,0,1,.26-2.44,17.4,17.4,0,0,1,.69-3.14,28,28,0,0,1,1.31-3.57,30.09,30.09,0,0,1,2.06-3.73,33.83,33.83,0,0,1,2.69-3.68c.5-.59,1-1.15,1.58-1.73a11.39,11.39,0,0,1,.85-.87l.85-.78a27.08,27.08,0,0,1,3.81-2.83c.67-.4,1.34-.78,2-1.16l2-1c1.45-.62,2.73-.91,4-1.34s2.5-.79,3.62-1c2.23-.59,4.12-1,5.43-1.31s2.07-.44,2.07-.44-.71.32-2,.83-3,1.24-5.19,2c-1.1.4-2.16.87-3.43,1.36s-2.6,1-3.78,1.55l-1.89,1-1.85,1.15a24.76,24.76,0,0,0-3.5,2.69l-.87.76c-.23.18-.51.52-.76.76-.51.55-1,1.07-1.53,1.62-.94,1.14-1.91,2.22-2.69,3.39a37.34,37.34,0,0,0-2.18,3.41,33.25,33.25,0,0,0-1.57,3.28,23.17,23.17,0,0,0-1.06,2.89,15.91,15.91,0,0,0-.61,2.33C155.73,110.06,155.55,110.81,155.55,110.81Z"/><path class="cls-10" d="M139.12,57.17l.31.26a5.86,5.86,0,0,0,.93.63c.84.46,2.14,1.15,3.56,2,.72.45,1.51.9,2.31,1.46s1.63,1.23,2.47,1.91l1.29,1c.5.5.77.84,1.15,1.29a16,16,0,0,1,2,2.88,26.7,26.7,0,0,1,1.46,3.19c.39,1.08.64,2.18.94,3.23s.35,2.1.47,3.08.09,1.93.12,2.79S156,82.6,156,83.29a13.53,13.53,0,0,1-.27,1.78c-.19,1-.33,1.52-.33,1.52s0-.57-.07-1.55a14.9,14.9,0,0,0-.1-1.76c-.08-.68-.17-1.44-.24-2.26s-.32-1.7-.47-2.63-.46-1.87-.71-2.87-.68-2-1-3a25.2,25.2,0,0,0-1.39-2.86,14.21,14.21,0,0,0-1.75-2.64l-1-1.21-1.16-1c-.77-.67-1.48-1.36-2.17-2L143.22,61l-3.1-2.66A5.62,5.62,0,0,1,139.12,57.17Z"/><path class="cls-10" d="M125.45,87.57s.55.09,1.5.29,2.32.47,3.92.88l.62.15a4.74,4.74,0,0,1,.69.25l1.27.53,1.34.57c.46.22.9.54,1.36.82A17,17,0,0,1,138.88,93a21.89,21.89,0,0,1,2.49,2.33A29.8,29.8,0,0,1,143.53,98c.61.9,1.17,1.8,1.72,2.68s.93,1.9,1.34,2.79a15.76,15.76,0,0,1,.92,2.58,11.91,11.91,0,0,1,.57,2.22c.1.67.18,1.26.25,1.75.13,1,.18,1.51.18,1.51s-.23-.52-.57-1.42c-.16-.45-.36-1-.59-1.62a22,22,0,0,0-.95-2,23.26,23.26,0,0,0-1.19-2.32c-.47-.78-1-1.6-1.47-2.46s-1.22-1.7-1.86-2.57a26.25,26.25,0,0,0-2-2.39,20.5,20.5,0,0,0-2.26-2.21,20.14,20.14,0,0,0-2.36-1.87c-.41-.29-.77-.59-1.18-.86l-1.27-.71-1.21-.67a3.91,3.91,0,0,0-.5-.29l-.59-.24c-1.53-.63-2.77-1.23-3.66-1.62S125.45,87.57,125.45,87.57Z"/><path class="cls-11" d="M138.54,60.22s-5.53,21.43,13,29.86C151,74.68,138.54,60.22,138.54,60.22Z"/><path class="cls-11" d="M172,100.13a9.74,9.74,0,0,0-3.32-.35c-1.26.11-2.78.84-4,.81-1,0-1.33-.45-.45-1.38,4-4.27,9.89-3.19,15.05-2.67,1.69.17,4.25.7,3.83,3-.23,1.23-1.66,1.83-2.84,2.07C177.31,102.18,174.71,100.82,172,100.13Z"/><path class="cls-11" d="M186.58,92.19a9.32,9.32,0,0,1-2.29.12,25.89,25.89,0,0,1-4-.59,20.91,20.91,0,0,0-4.85-.6c-.44,0-2.47.54-2.2-.44.17-.65,2.15-1.37,2.72-1.6a12.75,12.75,0,0,1,3.61-.74c2-.18,4-.22,6-.41a5.84,5.84,0,0,1,2.91.17c1.23.63.63,2.61-.27,3.35A3.65,3.65,0,0,1,186.58,92.19Z"/><path class="cls-11" d="M172.1,106.18c1,.34,1.76.75,1.26,1.17-.67.58-1.64.29-2.43.4s-1.29.26-2,.3a22.54,22.54,0,0,0-5.71,1c-.91.31-4.7,3.22-4.94,1.16-.21-1.85,3.39-4.35,4.82-4.94,1.82-.75,3.7-.35,5.54.1C169,105.42,170.77,105.74,172.1,106.18Z"/><path class="cls-11" d="M127.4,91c3.4,1,12.88,1.73,19.32,20.56C136.34,111.54,127.4,91,127.4,91Z"/><path class="cls-12" d="M156,112.27s.2-.77.61-2.11,1-3.27,1.91-5.5c.41-1.14,1-2.32,1.59-3.58a35.8,35.8,0,0,1,2.22-3.79,33.25,33.25,0,0,1,2.88-3.76l1.7-1.75c.67-.67,1.24-1.06,1.87-1.61a33.15,33.15,0,0,1,4-2.77,45.55,45.55,0,0,1,4.23-2.06c2.79-1.21,5.45-2.08,7.7-2.87l3.07-1.09c.92-.3,1.7-.62,2.34-.9,1.29-.53,2.05-.81,2.05-.81s-.67.44-1.87,1.17a25.13,25.13,0,0,1-2.21,1.24c-.86.46-1.84,1-2.93,1.48-2.17,1-4.75,2.13-7.39,3.43-1.35.61-2.64,1.41-4,2.13a29.67,29.67,0,0,0-3.76,2.65c-.58.49-1.32,1-1.77,1.48l-1.63,1.63a39.6,39.6,0,0,0-2.86,3.45c-.9,1.15-1.63,2.37-2.37,3.49s-1.34,2.27-1.87,3.34c-1.1,2.1-2,3.88-2.6,5.14S156,112.27,156,112.27Z"/><path class="cls-12" d="M159.17,105.48s.13-.33.39-.88a3.5,3.5,0,0,1,.72-.91,5.44,5.44,0,0,1,1.22-.93,8.59,8.59,0,0,1,1.66-.67,9.7,9.7,0,0,1,1.93-.4,13.15,13.15,0,0,1,2.09-.08l.54,0,.56.08,1,.14a14.18,14.18,0,0,1,2,.46c.72.18,1.32.39,1.93.57s1.21.4,1.74.52,1.05.33,1.54.39.94.18,1.34.27l1.06.1,1,.11s-.32.12-.91.3c-.3.08-.66.2-1.09.28s-.91.09-1.45.12a8.61,8.61,0,0,1-1.74-.06,11.69,11.69,0,0,1-1.87-.26c-.64-.13-1.32-.24-1.91-.39a13.88,13.88,0,0,0-1.94-.38l-1-.17-.44-.08-.48,0c-.63-.06-1.26-.1-1.86-.1s-1.18,0-1.73.09a15.25,15.25,0,0,0-1.51.26,7.74,7.74,0,0,0-1.2.46c-.3.2-.67.28-.87.53C159.44,105.25,159.17,105.48,159.17,105.48Z"/><path class="cls-12" d="M165.36,95.93l.8-.67a7.44,7.44,0,0,1,1-.71c.39-.24.85-.52,1.37-.8s1.1-.49,1.73-.73a21.11,21.11,0,0,1,2.12-.53c.7,0,1.4-.16,2.16-.15s1.63.1,2.39.21l2.21.42c.35.06.7.14,1,.22l.47.11.52.09a17.61,17.61,0,0,0,1.94.29,14.12,14.12,0,0,0,1.68.1c.53,0,1,0,1.47,0l1.15-.17,1-.13s-.31.2-.9.52c-.3.15-.65.36-1.09.55s-1,.31-1.52.46a9.09,9.09,0,0,1-1.91.26,10.79,10.79,0,0,1-2.05,0l-.53,0-.58-.07c-.36,0-.73-.1-1.09-.16l-2.16-.34c-.72-.13-1.35-.16-2-.26l-2.14,0-1.82.21c-.59.14-1.17.25-1.7.35s-1,.28-1.43.39-.81.27-1.12.37Z"/><path class="cls-12" d="M177.75,86.38a20,20,0,0,1,2.23-.45c.33-.05.69-.11,1.07-.14s.77-.15,1.17-.2c.8-.15,1.65-.26,2.51-.36s1.67-.39,2.48-.51a9.94,9.94,0,0,0,1.16-.22c.35-.11.7-.2,1-.27,1.28-.31,2.22-.43,2.22-.43a19.77,19.77,0,0,1-1.9,1.25c-.3.18-.62.37-1,.55a5.91,5.91,0,0,1-1.16.43c-.82.27-1.71.49-2.6.72s-1.83.17-2.69.2a9.82,9.82,0,0,1-2.31-.14C178.64,86.61,177.75,86.38,177.75,86.38Z"/><path class="cls-12" d="M141.19,61.81s.38.4,1,1.11,1.53,1.73,2.5,3a50.42,50.42,0,0,1,3.19,4.58,27.76,27.76,0,0,1,1.6,2.72l1.46,2.94c.38,1,.77,2.07,1.15,3.08a23.87,23.87,0,0,1,.83,3.08,16.52,16.52,0,0,1,.53,2.92c.1,1,.17,1.83.24,2.65a12.72,12.72,0,0,1,0,2.24c0,.67-.07,1.24-.1,1.72-.06,1-.12,1.49-.12,1.49s-.12-.54-.28-1.48c-.07-.46-.16-1-.27-1.67a20.65,20.65,0,0,0-.39-2.15c-.19-.78-.39-1.62-.58-2.51a23.63,23.63,0,0,0-.77-2.74c-.32-.94-.54-1.94-1-2.89S149.43,78,149.05,77c-.9-1.91-1.77-3.83-2.74-5.58-.48-.87-.88-1.76-1.35-2.55s-.87-1.56-1.25-2.27l-1.86-3.46C141.41,62.31,141.19,61.81,141.19,61.81Z"/><path class="cls-12" d="M142,81a2.93,2.93,0,0,0,.42.43,5.84,5.84,0,0,0,1.3.72l.94.39,1.07.42c.76.29,1.54.65,2.33,1l1.15.52a12.38,12.38,0,0,1,1.14.6,7.09,7.09,0,0,1,1.84,1.47,2.93,2.93,0,0,1,.54.79,2.48,2.48,0,0,1,.3.66,6,6,0,0,1,.13.61l-.4-.46a4.62,4.62,0,0,0-1.16-.93,13,13,0,0,0-1.87-.93l-2.34-.94c-.78-.39-1.55-.77-2.26-1.18a8.23,8.23,0,0,1-1-.63,8.47,8.47,0,0,1-.86-.66,4.23,4.23,0,0,1-1.08-1.29A1.89,1.89,0,0,1,142,81Z"/><path class="cls-12" d="M138.54,63.23s.07.17.17.47a1.66,1.66,0,0,0,.25.47c.09.16.28.33.42.53a8.55,8.55,0,0,0,1.26,1.17c.25.2.52.39.78.6a9.53,9.53,0,0,0,.84.57c.58.41,1.15.71,1.72,1.09a8.61,8.61,0,0,1,1.46,1.18,3.78,3.78,0,0,1,.77,1.08c.14.29.2.46.2.46l-.36-.34a5.79,5.79,0,0,0-1-.76,14.15,14.15,0,0,0-1.54-.83,18.82,18.82,0,0,1-1.84-1A8.52,8.52,0,0,1,138.9,65a2.65,2.65,0,0,1-.29-.72,1.81,1.81,0,0,1-.1-.59C138.52,63.41,138.54,63.23,138.54,63.23Z"/><path class="cls-12" d="M139.19,71.75l.47.46A7.5,7.5,0,0,0,141,73.26a38.26,38.26,0,0,0,4.69,2.21,12.81,12.81,0,0,1,4.49,2.92,3.31,3.31,0,0,1,.59.84,2.41,2.41,0,0,1,.31.72c.13.41.18.64.18.64L150.9,80a4.94,4.94,0,0,0-1.14-1.22,20.88,20.88,0,0,0-4.52-2.41,17.77,17.77,0,0,1-4.61-2.68,5.58,5.58,0,0,1-1.13-1.39Z"/><path class="cls-12" d="M156.9,113.87s.61-.13,1.67-.29l1.93-.28a20.71,20.71,0,0,0,2.44-.52l2.77-.65,3.13-1.1c1.12-.33,2.14-.89,3.25-1.31l1.65-.68,1.62-.76a32.24,32.24,0,0,0,3.1-1.65c.95-.69,2-1.22,2.84-1.95s1.75-1.34,2.52-2,1.49-1.36,2.17-2,1.23-1.24,1.77-1.75,1-1,1.34-1.4c.74-.78,1.19-1.22,1.19-1.22s-.3.54-.87,1.47c-.28.46-.62,1-1.06,1.64a23.3,23.3,0,0,1-1.5,2,26,26,0,0,1-2,2.29l-1.15,1.2-1.3,1.14a26.19,26.19,0,0,1-6.22,4.05l-1.73.77-1.73.67a27.44,27.44,0,0,1-3.4,1.17l-3.21.85c-1.17.17-2.12.24-3.08.34a12.42,12.42,0,0,1-2.53.11l-1.95-.08C157.52,113.93,156.9,113.87,156.9,113.87Z"/><path class="cls-12" d="M133.27,103.07s1,.73,2.43,2c.69.6,1.46,1.4,2.3,2.16.41.39.85.78,1.27,1.2s.92.73,1.37,1.11l.69.57.16.14,0,0,.1.06.39.23c.53.28,1,.66,1.53.9,1,.43,1.9.88,2.78,1.2l2.07.85c.51.21.79.35.79.35a23.66,23.66,0,0,1-3.11-.35,16.7,16.7,0,0,1-3.18-.85,17.21,17.21,0,0,1-1.61-.8l-.4-.22-.1,0a.74.74,0,0,1-.16-.1l-.18-.15-.76-.59c-.48-.42-1-.8-1.45-1.25s-.83-.91-1.22-1.34a31.17,31.17,0,0,1-2-2.5C134,104.13,133.27,103.07,133.27,103.07Z"/><path class="cls-13" d="M129.1,136.14c.25-.34.53-.67.79-1,.16-.18.21-.29.46-.55l.44-.45a17.11,17.11,0,0,1,2.07-1.67,16.94,16.94,0,0,1,2.26-1.19,11.21,11.21,0,0,1,2.25-.75c.37-.09.72-.19,1.07-.25l1-.07a5.57,5.57,0,0,1,1.8.09,3.4,3.4,0,0,1,1.32.34c.71.31,1.07.49,1.07.49l-1.15-.09a4,4,0,0,0-1.27,0,6.71,6.71,0,0,0-1.6.29,10.8,10.8,0,0,0-1.81.62,14.56,14.56,0,0,0-1.92.92c-.67.3-1.27.81-1.93,1.19a12.14,12.14,0,0,0-1.74,1.5l-.45.43a3.26,3.26,0,0,0-.35.4l-.52.63.82.27c.85.26,1.68.53,2.52.82a10.91,10.91,0,0,1,3.72-2.9c3.38-1.5,8.14-2.24,9.33,2.24a5.36,5.36,0,0,1,0,2.84,8.21,8.21,0,0,1,6.13-.72,9.57,9.57,0,0,1,1.75.65c-6.5-15.7-20.88-15.62-28.15-4.62l1.92.73Z"/><path class="cls-13" d="M173.2,150.85a10.62,10.62,0,0,1-1.08,4.56,11,11,0,0,1-.88,1.62,20.36,20.36,0,0,1-2.45,2.55,4.4,4.4,0,0,0,2.13-.08c.71-.12,1.45-.34,2.14-.53a10.18,10.18,0,0,0,2.17-.88,18.08,18.08,0,0,0,3.21-2.5,6.79,6.79,0,0,0,2-2.87,5.56,5.56,0,0,0-.63-3.83,3.35,3.35,0,0,0-.57-.87c-.83-.85-2.15-.8-2.78-1.91s-.58-2.22-1.08-3.26a12.64,12.64,0,0,0-1.61-2.62,15.27,15.27,0,0,0-5.19-4.22c-5-2.36-9.42.92-12.4,4.81a7.25,7.25,0,0,1,2.54,2.82l1.29.06a2.8,2.8,0,0,1,0-2.79c1.78-4,10.6-3.44,9.28.8a4.55,4.55,0,0,1-.34.77,5,5,0,0,1-2.75,2.06,17.05,17.05,0,0,1,2.43.84c.25-.19.5-.38.73-.58a10,10,0,0,0,.92-.93,4.43,4.43,0,0,0,.69-.94,3.72,3.72,0,0,0,.43-.91,2,2,0,0,0,.22-.78c.08-.48.13-.75.13-.75s.11.24.28.73a2,2,0,0,1,.16.91,3.29,3.29,0,0,1-.11,1.22L172,144c-.09.23-.22.45-.33.68-.22.43-1,.89-1,1.37s1,1.1,1.35,1.49A4.82,4.82,0,0,1,173.2,150.85Z"/><path class="cls-14" d="M131.8,136l.45-.43a12.14,12.14,0,0,1,1.74-1.5c.66-.38,1.26-.89,1.93-1.19a14.56,14.56,0,0,1,1.92-.92,10.8,10.8,0,0,1,1.81-.62,6.71,6.71,0,0,1,1.6-.29,4,4,0,0,1,1.27,0l1.15.09s-.36-.18-1.07-.49a3.4,3.4,0,0,0-1.32-.34,5.57,5.57,0,0,0-1.8-.09l-1,.07c-.35.06-.7.16-1.07.25a11.21,11.21,0,0,0-2.25.75,16.94,16.94,0,0,0-2.26,1.19,17.11,17.11,0,0,0-2.07,1.67l-.44.45c-.25.26-.3.37-.46.55-.26.35-.54.68-.79,1l-.14.22c.65.24,1.31.47,2,.69l.52-.63A3.26,3.26,0,0,1,131.8,136Z"/><path class="cls-15" d="M147.31,140.32a5.36,5.36,0,0,0,0-2.84c-1.19-4.48-5.95-3.74-9.33-2.24a10.91,10.91,0,0,0-3.72,2.9c2.53.87,5,1.83,7.56,2.71,1.21.43,2.44.78,3.68,1.1A5.54,5.54,0,0,1,147.31,140.32Z"/><path class="cls-15" d="M169,142.48a4.55,4.55,0,0,0,.34-.77c1.32-4.24-7.5-4.79-9.28-.8a2.8,2.8,0,0,0,0,2.79,31.57,31.57,0,0,1,6.23.84A5,5,0,0,0,169,142.48Z"/><path class="cls-16" d="M147.31,140.32a5.54,5.54,0,0,0-1.8,1.63,58.38,58.38,0,0,0,10.62,1.55c.86.06,1.73.1,2.6.14a7.25,7.25,0,0,0-2.54-2.82,8.1,8.1,0,0,0-1-.57,9.57,9.57,0,0,0-1.75-.65A8.21,8.21,0,0,0,147.31,140.32Z"/><path class="cls-16" d="M170.78,146.51c.09-.09.63-1.3.84-1.79.11-.23.24-.45.33-.68l.18-.69a3.29,3.29,0,0,0,.11-1.22,2,2,0,0,0-.16-.91c-.17-.49-.28-.73-.28-.73s-.05.27-.13.75a2,2,0,0,1-.22.78,3.72,3.72,0,0,1-.43.91,4.43,4.43,0,0,1-.69.94,10,10,0,0,1-.92.93c-.23.2-.48.39-.73.58l.51.23C169.65,145.84,170.39,146.25,170.78,146.51Z"/></g><text class="cls-17" transform="translate(44.8 213.06)"><tspan class="cls-18">A</tspan><tspan class="cls-19" x="15.41" y="0">GRO</tspan><tspan class="cls-20" x="64.3" y="0">C</tspan><tspan x="79.15" y="0">OMMERCE</tspan></text><g class="cls-21"><path class="cls-5" d="M269,119.59s0-.19.1-.54c1.28-6.47,15.56-68.93,84.72-33,0,0,17.19,5.43,23.73,5.31s8.74-13,11.47-19.81,8.56-8.13,10-7.08-.35,6.21-.35,6.21S404,57.1,412.36,59.48c2.85.8,1.4,6,1.4,6s5-12.08,13.08-9.79c3.67,1,1.42,9.16,1.42,9.16s4.38-2.25,6.35,1.27c2.43,4.35-11.36,31.1-17.43,40.28-7.34,11.1-28.46,27.71-45,27.63C352.71,133.9,301,98.58,269,119.59Z"/></g></svg>